sporting_grotesque_gras_latin_greek.ufo
<glyph name="dollar" format="1">
  <advance width="880"/>
  <unicode hex="0024"/>
  <outline>
    <contour>
      <point x="455" y="-223" type="line"/>
      <point x="455" y="-12" type="line"/>
      <point x="461" y="-12"/>
      <point x="468" y="-13"/>
      <point x="475" y="-13" type="curve" smooth="yes"/>
      <point x="684" y="-13"/>
      <point x="845" y="66"/>
      <point x="845" y="217" type="curve" smooth="yes"/>
      <point x="845" y="321"/>
      <point x="787" y="406"/>
      <point x="597" y="444" type="curve" smooth="yes"/>
      <point x="455" y="472" type="line"/>
      <point x="455" y="666" type="line"/>
      <point x="636" y="648"/>
      <point x="631" y="512"/>
      <point x="631" y="512" type="curve"/>
      <point x="814" y="562" type="line"/>
      <point x="814" y="562"/>
      <point x="798" y="777"/>
      <point x="455" y="790" type="curve"/>
      <point x="455" y="1012" type="line"/>
      <point x="412" y="1012" type="line"/>
      <point x="412" y="791" type="line"/>
      <point x="175" y="788"/>
      <point x="62" y="678"/>
      <point x="62" y="559" type="curve" smooth="yes"/>
      <point x="62" y="461"/>
      <point x="146" y="384"/>
      <point x="296" y="352" type="curve" smooth="yes"/>
      <point x="412" y="327" type="line"/>
      <point x="412" y="113" type="line"/>
      <point x="197" y="139"/>
      <point x="217" y="300"/>
      <point x="217" y="300" type="curve"/>
      <point x="34" y="253" type="line"/>
      <point x="39" y="148"/>
      <point x="130" y="7"/>
      <point x="412" y="-11" type="curve"/>
      <point x="412" y="-223" type="line"/>
    </contour>
    <contour>
      <point x="383" y="487" type="line" smooth="yes"/>
      <point x="302" y="503"/>
      <point x="246" y="528"/>
      <point x="246" y="578" type="curve" smooth="yes"/>
      <point x="246" y="628"/>
      <point x="307" y="667"/>
      <point x="412" y="668" type="curve"/>
      <point x="412" y="481" type="line"/>
    </contour>
    <contour>
      <point x="494" y="310" type="line" smooth="yes"/>
      <point x="601" y="287"/>
      <point x="662" y="274"/>
      <point x="662" y="203" type="curve" smooth="yes"/>
      <point x="662" y="144"/>
      <point x="590" y="110"/>
      <point x="472" y="110" type="curve" smooth="yes"/>
      <point x="455" y="110" type="line"/>
      <point x="455" y="318" type="line"/>
    </contour>
  </outline>
</glyph>
<glyph name="percent" format="1">
  <advance width="924"/>
  <unicode hex="0025"/>
  <outline>
    <contour>
      <point x="20" y="590" type="curve" name="hr00" smooth="yes"/>
      <point x="20" y="469"/>
      <point x="110" y="389"/>
      <point x="231" y="389" type="curve" smooth="yes"/>
      <point x="352" y="389"/>
      <point x="442" y="469"/>
      <point x="442" y="590" type="curve" smooth="yes"/>
      <point x="442" y="711"/>
      <point x="352" y="792"/>
      <point x="231" y="792" type="curve" smooth="yes"/>
      <point x="110" y="792"/>
      <point x="20" y="711"/>
    </contour>
    <contour>
      <point x="644" y="784" type="line"/>
      <point x="233" y="20" type="line"/>
      <point x="279" y="-3" type="line"/>
      <point x="692" y="760" type="line"/>
    </contour>
    <contour>
      <point x="81" y="590" type="curve" smooth="yes"/>
      <point x="81" y="677"/>
      <point x="132" y="744"/>
      <point x="231" y="744" type="curve" smooth="yes"/>
      <point x="330" y="744"/>
      <point x="381" y="677"/>
      <point x="381" y="590" type="curve" smooth="yes"/>
      <point x="381" y="503"/>
      <point x="330" y="436"/>
      <point x="231" y="436" type="curve" smooth="yes"/>
      <point x="132" y="436"/>
      <point x="81" y="503"/>
    </contour>
    <contour>
      <point x="482" y="190" type="curve" smooth="yes"/>
      <point x="482" y="69"/>
      <point x="572" y="-11"/>
      <point x="693" y="-11" type="curve" smooth="yes"/>
      <point x="814" y="-11"/>
      <point x="904" y="69"/>
      <point x="904" y="190" type="curve" smooth="yes"/>
      <point x="904" y="311"/>
      <point x="814" y="392"/>
      <point x="693" y="392" type="curve" smooth="yes"/>
      <point x="572" y="392"/>
      <point x="482" y="311"/>
    </contour>
    <contour>
      <point x="543" y="190" type="curve" smooth="yes"/>
      <point x="543" y="277"/>
      <point x="594" y="344"/>
      <point x="693" y="344" type="curve" smooth="yes"/>
      <point x="792" y="344"/>
      <point x="843" y="277"/>
      <point x="843" y="190" type="curve" smooth="yes"/>
      <point x="843" y="103"/>
      <point x="792" y="36"/>
      <point x="693" y="36" type="curve" smooth="yes"/>
      <point x="594" y="36"/>
      <point x="543" y="103"/>
    </contour>
  </outline>
</glyph>
<glyph name="parenleft" format="1">
  <advance width="381"/>
  <unicode hex="0028"/>
  <outline>
    <contour>
      <point x="40" y="339" type="curve" name="hr00"/>
      <point x="40" y="72"/>
      <point x="239" y="-90"/>
      <point x="361" y="-109" type="curve"/>
      <point x="361" y="-68" type="line"/>
      <point x="273" y="-49"/>
      <point x="101" y="82"/>
      <point x="101" y="339" type="curve" smooth="yes"/>
      <point x="101" y="596"/>
      <point x="273" y="727"/>
      <point x="361" y="746" type="curve"/>
      <point x="361" y="787" type="line"/>
      <point x="239" y="768"/>
      <point x="40" y="606"/>
    </contour>
  </outline>
</glyph>
<glyph name="parenright" format="1">
  <advance width="381"/>
  <unicode hex="0029"/>
  <outline>
    <contour>
      <point x="341" y="339" type="curve" name="hr00"/>
      <point x="341" y="606"/>
      <point x="142" y="768"/>
      <point x="20" y="787" type="curve"/>
      <point x="20" y="746" type="line"/>
      <point x="108" y="727"/>
      <point x="280" y="596"/>
      <point x="280" y="339" type="curve" smooth="yes"/>
      <point x="280" y="82"/>
      <point x="108" y="-49"/>
      <point x="20" y="-68" type="curve"/>
      <point x="20" y="-109" type="line"/>
      <point x="142" y="-90"/>
      <point x="341" y="72"/>
    </contour>
  </outline>
</glyph>
<glyph name="plus" format="1">
  <advance width="650"/>
  <unicode hex="002B"/>
  <outline>
    <contour>
      <point x="300" y="580" type="line"/>
      <point x="300" y="300" type="line"/>
      <point x="20" y="300" type="line"/>
      <point x="20" y="250" type="line"/>
      <point x="300" y="250" type="line"/>
      <point x="300" y="-30" type="line"/>
      <point x="350" y="-30" type="line"/>
      <point x="350" y="250" type="line"/>
      <point x="630" y="250" type="line"/>
      <point x="630" y="300" type="line"/>
      <point x="350" y="300" type="line"/>
      <point x="350" y="580" type="line"/>
    </contour>
    <contour>
      <point x="322" y="568" type="move" name="_top"/>
    </contour>
  </outline>
</glyph>
<glyph name="slash" format="1">
  <advance width="245"/>
  <unicode hex="002F"/>
  <outline>
    <contour>
      <point x="233" y="729" type="line" name="hr00"/>
      <point x="-39" y="-95" type="line"/>
      <point x="10" y="-110" type="line"/>
      <point x="284" y="713" type="line"/>
    </contour>
  </outline>
</glyph>
<glyph name="four" format="1">
  <advance width="880"/>
  <unicode hex="0034"/>
  <outline>
    <contour>
      <point x="20" y="185" type="line"/>
      <point x="505" y="185" type="line"/>
      <point x="505" y="0" type="line"/>
      <point x="683" y="0" type="line"/>
      <point x="683" y="185" type="line"/>
      <point x="847" y="185" type="line"/>
      <point x="847" y="298" type="line"/>
      <point x="683" y="298" type="line"/>
      <point x="683" y="777" type="line"/>
      <point x="473" y="777" type="line"/>
      <point x="20" y="318" type="line"/>
    </contour>
    <contour>
      <point x="505" y="618" type="line"/>
      <point x="505" y="298" type="line"/>
      <point x="194" y="298" type="line"/>
    </contour>
  </outline>
</glyph>
<glyph name="five" format="1">
  <advance width="880"/>
  <unicode hex="0035"/>
  <outline>
    <contour>
      <point x="820" y="262" type="curve" smooth="yes"/>
      <point x="820" y="425"/>
      <point x="671" y="535"/>
      <point x="503" y="535" type="curve"/>
      <point x="362" y="535"/>
      <point x="303" y="471"/>
      <point x="303" y="471" type="curve"/>
      <point x="348" y="668" type="line"/>
      <point x="783" y="668" type="line"/>
      <point x="783" y="777" type="line"/>
      <point x="197" y="777" type="line"/>
      <point x="114" y="358" type="line"/>
      <point x="287" y="358" type="line"/>
      <point x="287" y="358"/>
      <point x="345" y="412"/>
      <point x="451" y="412" type="curve" smooth="yes"/>
      <point x="563" y="412"/>
      <point x="635" y="344"/>
      <point x="635" y="261" type="curve" smooth="yes"/>
      <point x="635" y="177"/>
      <point x="563" y="110"/>
      <point x="451" y="110" type="curve" smooth="yes"/>
      <point x="223" y="110"/>
      <point x="242" y="304"/>
      <point x="242" y="304" type="curve"/>
      <point x="56" y="256" type="line"/>
      <point x="56" y="256"/>
      <point x="68" y="-13"/>
      <point x="451" y="-13" type="curve" smooth="yes"/>
      <point x="672" y="-13"/>
      <point x="820" y="87"/>
    </contour>
  </outline>
</glyph>
<glyph name="six" format="1">
  <advance width="880"/>
  <unicode hex="0036"/>
  <outline>
    <contour>
      <point x="473" y="668" type="curve" smooth="yes"/>
      <point x="630" y="668"/>
      <point x="643" y="547"/>
      <point x="643" y="547" type="curve"/>
      <point x="827" y="597" type="line"/>
      <point x="827" y="597"/>
      <point x="780" y="791"/>
      <point x="480" y="791" type="curve" smooth="yes"/>
      <point x="206" y="791"/>
      <point x="60" y="622"/>
      <point x="60" y="389" type="curve" smooth="yes"/>
      <point x="60" y="155"/>
      <point x="196" y="-13"/>
      <point x="447" y="-13" type="curve" smooth="yes"/>
      <point x="655" y="-13"/>
      <point x="813" y="102"/>
      <point x="813" y="268" type="curve" smooth="yes"/>
      <point x="813" y="440"/>
      <point x="669" y="524"/>
      <point x="527" y="524" type="curve"/>
      <point x="309" y="524"/>
      <point x="245" y="370"/>
      <point x="245" y="370" type="curve"/>
      <point x="239" y="542"/>
      <point x="319" y="668"/>
    </contour>
    <contour>
      <point x="264" y="249" type="curve"/>
      <point x="264" y="249"/>
      <point x="280" y="401"/>
      <point x="465" y="401" type="curve"/>
      <point x="572" y="401"/>
      <point x="627" y="334"/>
      <point x="627" y="249" type="curve" smooth="yes"/>
      <point x="627" y="174"/>
      <point x="558" y="110"/>
      <point x="446" y="110" type="curve"/>
      <point x="293" y="110"/>
      <point x="264" y="249"/>
    </contour>
  </outline>
</glyph>
<glyph name="nine" format="1">
  <advance width="880"/>
  <unicode hex="0039"/>
  <outline>
    <contour>
      <point x="407" y="110" type="curve"/>
      <point x="250" y="110"/>
      <point x="237" y="231"/>
      <point x="237" y="231" type="curve"/>
      <point x="53" y="181" type="line"/>
      <point x="53" y="181"/>
      <point x="100" y="-13"/>
      <point x="400" y="-13" type="curve" smooth="yes"/>
      <point x="674" y="-13"/>
      <point x="820" y="156"/>
      <point x="820" y="389" type="curve" smooth="yes"/>
      <point x="820" y="623"/>
      <point x="684" y="791"/>
      <point x="433" y="791" type="curve" smooth="yes"/>
      <point x="225" y="791"/>
      <point x="67" y="676"/>
      <point x="67" y="510" type="curve" smooth="yes"/>
      <point x="67" y="338"/>
      <point x="211" y="254"/>
      <point x="353" y="254" type="curve" smooth="yes"/>
      <point x="571" y="254"/>
      <point x="635" y="408"/>
      <point x="635" y="408" type="curve"/>
      <point x="641" y="236"/>
      <point x="561" y="110"/>
    </contour>
    <contour>
      <point x="616" y="529" type="curve"/>
      <point x="616" y="529"/>
      <point x="600" y="377"/>
      <point x="415" y="377" type="curve" smooth="yes"/>
      <point x="308" y="377"/>
      <point x="253" y="444"/>
      <point x="253" y="529" type="curve" smooth="yes"/>
      <point x="253" y="604"/>
      <point x="322" y="668"/>
      <point x="434" y="668" type="curve" smooth="yes"/>
      <point x="587" y="668"/>
      <point x="616" y="529"/>
    </contour>
  </outline>
</glyph>
<glyph name="less" format="1">
  <advance width="650"/>
  <unicode hex="003C"/>
  <outline>
    <contour>
      <point x="75" y="287" type="line"/>
      <point x="75" y="235" type="line"/>
      <point x="528" y="-14" type="line"/>
      <point x="554" y="31" type="line"/>
      <point x="136" y="261" type="line"/>
      <point x="555" y="491" type="line"/>
      <point x="529" y="537" type="line"/>
    </contour>
    <contour>
      <point x="276" y="568" type="move" name="_top"/>
    </contour>
  </outline>
</glyph>
<glyph name="equal" format="1">
  <advance width="650"/>
  <unicode hex="003D"/>
  <outline>
    <contour>
      <point x="610" y="420" type="line"/>
      <point x="40" y="420" type="line"/>
      <point x="40" y="370" type="line"/>
      <point x="610" y="370" type="line"/>
    </contour>
    <contour>
      <point x="610" y="180" type="line"/>
      <point x="40" y="180" type="line"/>
      <point x="40" y="130" type="line"/>
      <point x="610" y="130" type="line"/>
    </contour>
    <contour>
      <point x="322" y="568" type="move" name="_top"/>
    </contour>
  </outline>
</glyph>
<glyph name="greater" format="1">
  <advance width="650"/>
  <unicode hex="003E"/>
  <outline>
    <contour>
      <point x="121" y="537" type="line"/>
      <point x="96" y="491" type="line"/>
      <point x="514" y="261" type="line"/>
      <point x="96" y="31" type="line"/>
      <point x="122" y="-14" type="line"/>
      <point x="575" y="235" type="line"/>
      <point x="575" y="287" type="line"/>
    </contour>
    <contour>
      <point x="302" y="568" type="move" name="_top"/>
    </contour>
  </outline>
</glyph>
<glyph name="at" format="1">
  <advance width="1146"/>
  <unicode hex="0040"/>
  <outline>
    <contour>
      <point x="792" y="0" type="curve" smooth="yes"/>
      <point x="880" y="0"/>
      <point x="1086" y="98"/>
      <point x="1086" y="369" type="curve" smooth="yes"/>
      <point x="1086" y="619"/>
      <point x="857" y="790"/>
      <point x="605" y="790" type="curve" smooth="yes"/>
      <point x="288" y="790"/>
      <point x="60" y="576"/>
      <point x="60" y="264" type="curve" smooth="yes"/>
      <point x="60" y="-32"/>
      <point x="277" y="-236"/>
      <point x="597" y="-236" type="curve" smooth="yes"/>
      <point x="787" y="-236"/>
      <point x="942" y="-153"/>
      <point x="1042" y="-9" type="curve"/>
      <point x="979" y="-9" type="line"/>
      <point x="901" y="-119"/>
      <point x="753" y="-186"/>
      <point x="608" y="-186" type="curve" smooth="yes"/>
      <point x="323" y="-186"/>
      <point x="129" y="-8"/>
      <point x="129" y="275" type="curve" smooth="yes"/>
      <point x="129" y="546"/>
      <point x="357" y="739"/>
      <point x="594" y="739" type="curve" smooth="yes"/>
      <point x="830" y="739"/>
      <point x="1035" y="596"/>
      <point x="1035" y="347" type="curve" smooth="yes"/>
      <point x="1035" y="227"/>
      <point x="966" y="135"/>
      <point x="897" y="85" type="curve" smooth="yes"/>
      <point x="865" y="62"/>
      <point x="844" y="52"/>
      <point x="825" y="52" type="curve" smooth="yes"/>
      <point x="803" y="52"/>
      <point x="817" y="72"/>
      <point x="822" y="95" type="curve" smooth="yes"/>
      <point x="928" y="555" type="line"/>
      <point x="832" y="555" type="line"/>
      <point x="763" y="427" type="line"/>
      <point x="763" y="427"/>
      <point x="746" y="568"/>
      <point x="573" y="568" type="curve" smooth="yes"/>
      <point x="397" y="568"/>
      <point x="220" y="420"/>
      <point x="220" y="198" type="curve" smooth="yes"/>
      <point x="220" y="92"/>
      <point x="301" y="-13"/>
      <point x="456" y="-13" type="curve" smooth="yes"/>
      <point x="619" y="-13"/>
      <point x="695" y="124"/>
      <point x="699" y="131" type="curve"/>
      <point x="699" y="33"/>
      <point x="720" y="0"/>
    </contour>
    <contour>
      <point x="524" y="97" type="curve" smooth="yes"/>
      <point x="451" y="97"/>
      <point x="395" y="142"/>
      <point x="395" y="222" type="curve" smooth="yes"/>
      <point x="395" y="356"/>
      <point x="488" y="459"/>
      <point x="596" y="459" type="curve" smooth="yes"/>
      <point x="654" y="459"/>
      <point x="731" y="434"/>
      <point x="731" y="333" type="curve" smooth="yes"/>
      <point x="731" y="202"/>
      <point x="648" y="97"/>
    </contour>
  </outline>
</glyph>
<glyph name="A" format="1">
  <advance width="1063"/>
  <unicode hex="0041"/>
  <outline>
    <contour>
      <point x="861" y="0" type="line"/>
      <point x="1053" y="0" type="line"/>
      <point x="686" y="777" type="line"/>
      <point x="377" y="777" type="line"/>
      <point x="10" y="0" type="line"/>
      <point x="201" y="0" type="line"/>
      <point x="308" y="235" type="line"/>
      <point x="754" y="235" type="line"/>
    </contour>
    <contour>
      <point x="506" y="668" type="line"/>
      <point x="557" y="668" type="line"/>
      <point x="704" y="345" type="line"/>
      <point x="358" y="345" type="line"/>
    </contour>
    <contour>
      <point x="545" y="855" type="move" name="top"/>
    </contour>
  </outline>
</glyph>
<glyph name="C" format="1">
  <advance width="1073"/>
  <unicode hex="0043"/>
  <outline>
    <contour>
      <point x="1001" y="452" type="line"/>
      <point x="1001" y="452"/>
      <point x="1004" y="791"/>
      <point x="538" y="791" type="curve" smooth="yes"/>
      <point x="247" y="791"/>
      <point x="60" y="623"/>
      <point x="60" y="389" type="curve" smooth="yes"/>
      <point x="60" y="156"/>
      <point x="251" y="-13"/>
      <point x="539" y="-13" type="curve" smooth="yes"/>
      <point x="977" y="-13"/>
      <point x="1023" y="291"/>
      <point x="1023" y="291" type="curve"/>
      <point x="840" y="338" type="line"/>
      <point x="840" y="338"/>
      <point x="844" y="110"/>
      <point x="539" y="110" type="curve" smooth="yes"/>
      <point x="363" y="110"/>
      <point x="245" y="217"/>
      <point x="245" y="389" type="curve" smooth="yes"/>
      <point x="245" y="552"/>
      <point x="345" y="668"/>
      <point x="539" y="668" type="curve" smooth="yes"/>
      <point x="848" y="668"/>
      <point x="818" y="402"/>
      <point x="818" y="402" type="curve"/>
    </contour>
    <contour>
      <point x="532" y="855" type="move" name="top"/>
    </contour>
    <contour>
      <point x="532" y="-9" type="move" name="bottom"/>
    </contour>
  </outline>
</glyph>
<glyph name="F" format="1">
  <advance width="764"/>
  <unicode hex="0046"/>
  <outline>
    <contour>
      <point x="90" y="0" type="line"/>
      <point x="268" y="0" type="line"/>
      <point x="268" y="333" type="line"/>
      <point x="716" y="333" type="line"/>
      <point x="716" y="442" type="line"/>
      <point x="268" y="442" type="line"/>
      <point x="268" y="668" type="line"/>
      <point x="744" y="668" type="line"/>
      <point x="744" y="777" type="line"/>
      <point x="90" y="777" type="line"/>
    </contour>
    <contour>
      <point x="470" y="855" type="move" name="top"/>
    </contour>
  </outline>
</glyph>
<glyph name="H" format="1">
  <advance width="1006"/>
  <unicode hex="0048"/>
  <outline>
    <contour>
      <point x="738" y="0" type="line"/>
      <point x="916" y="0" type="line"/>
      <point x="916" y="777" type="line"/>
      <point x="738" y="777" type="line"/>
      <point x="738" y="442" type="line"/>
      <point x="268" y="442" type="line"/>
      <point x="268" y="777" type="line"/>
      <point x="90" y="777" type="line"/>
      <point x="90" y="0" type="line"/>
      <point x="268" y="0" type="line"/>
      <point x="268" y="333" type="line"/>
      <point x="738" y="333" type="line"/>
    </contour>
  </outline>
</glyph>
<glyph name="K" format="1">
  <advance width="912"/>
  <unicode hex="004B"/>
  <outline>
    <contour>
      <point x="730" y="0" type="line"/>
      <point x="952" y="0" type="line"/>
      <point x="514" y="442" type="line"/>
      <point x="922" y="777" type="line"/>
      <point x="700" y="777" type="line"/>
      <point x="268" y="411" type="line"/>
      <point x="268" y="777" type="line"/>
      <point x="90" y="777" type="line"/>
      <point x="90" y="0" type="line"/>
      <point x="268" y="0" type="line"/>
      <point x="268" y="238" type="line"/>
      <point x="399" y="347" type="line"/>
    </contour>
  </outline>
</glyph>
<glyph name="L" format="1">
  <advance width="743"/>
  <unicode hex="004C"/>
  <outline>
    <contour>
      <point x="90" y="0" type="line"/>
      <point x="733" y="0" type="line"/>
      <point x="733" y="110" type="line"/>
      <point x="268" y="110" type="line"/>
      <point x="268" y="777" type="line"/>
      <point x="90" y="777" type="line"/>
    </contour>
  </outline>
</glyph>
<glyph name="M" format="1">
  <advance width="1312"/>
  <unicode hex="004D"/>
  <outline>
    <contour>
      <point x="656" y="170" type="line"/>
      <point x="397" y="777" type="line"/>
      <point x="90" y="777" type="line"/>
      <point x="90" y="0" type="line"/>
      <point x="268" y="0" type="line"/>
      <point x="268" y="668" type="line"/>
      <point x="569" y="0" type="line"/>
      <point x="743" y="0" type="line"/>
      <point x="1044" y="668" type="line"/>
      <point x="1044" y="0" type="line"/>
      <point x="1222" y="0" type="line"/>
      <point x="1222" y="777" type="line"/>
      <point x="915" y="777" type="line"/>
    </contour>
  </outline>
</glyph>
<glyph name="W" format="1">
  <advance width="1427"/>
  <unicode hex="0057"/>
  <outline>
    <contour>
      <point x="1417" y="777" type="line"/>
      <point x="1215" y="777" type="line"/>
      <point x="1014" y="170" type="line"/>
      <point x="842" y="777" type="line"/>
      <point x="585" y="777" type="line"/>
      <point x="413" y="169" type="line"/>
      <point x="212" y="777" type="line"/>
      <point x="10" y="777" type="line"/>
      <point x="301" y="0" type="line"/>
      <point x="515" y="0" type="line"/>
      <point x="713" y="668" type="line"/>
      <point x="912" y="0" type="line"/>
      <point x="1124" y="0" type="line"/>
    </contour>
  </outline>
</glyph>
<glyph name="X" format="1">
  <advance width="982"/>
  <unicode hex="0058"/>
  <outline>
    <contour>
      <point x="755" y="0" type="line"/>
      <point x="972" y="0" type="line"/>
      <point x="599" y="388" type="line"/>
      <point x="972" y="777" type="line"/>
      <point x="755" y="777" type="line"/>
      <point x="491" y="501" type="line"/>
      <point x="227" y="777" type="line"/>
      <point x="10" y="777" type="line"/>
      <point x="382" y="388" type="line"/>
      <point x="10" y="0" type="line"/>
      <point x="227" y="0" type="line"/>
      <point x="491" y="275" type="line"/>
    </contour>
  </outline>
</glyph>
<glyph name="Z" format="1">
  <advance width="818"/>
  <unicode hex="005A"/>
  <outline>
    <contour>
      <point x="798" y="110" type="line"/>
      <point x="255" y="110" type="line"/>
      <point x="798" y="658" type="line"/>
      <point x="798" y="777" type="line"/>
      <point x="20" y="777" type="line"/>
      <point x="20" y="668" type="line"/>
      <point x="563" y="668" type="line"/>
      <point x="20" y="120" type="line"/>
      <point x="20" y="0" type="line"/>
      <point x="798" y="0" type="line"/>
    </contour>
  </outline>
</glyph>
<glyph name="bracketleft" format="1">
  <advance width="333"/>
  <unicode hex="005B"/>
  <outline>
    <contour>
      <point x="313" y="818" type="line" name="hr00"/>
      <point x="60" y="818" type="line"/>
      <point x="60" y="-179" type="line"/>
      <point x="313" y="-179" type="line"/>
      <point x="313" y="-129" type="line"/>
      <point x="110" y="-129" type="line"/>
      <point x="110" y="768" type="line"/>
      <point x="313" y="768" type="line"/>
    </contour>
  </outline>
</glyph>
<glyph name="backslash" format="1">
  <advance width="245"/>
  <unicode hex="005C"/>
  <outline>
    <contour>
      <point x="-39" y="713" type="line" name="hr00"/>
      <point x="235" y="-110" type="line"/>
      <point x="284" y="-95" type="line"/>
      <point x="12" y="729" type="line"/>
    </contour>
  </outline>
</glyph>
<glyph name="underscore" format="1">
  <advance width="510"/>
  <unicode hex="005F"/>
  <outline>
    <contour>
      <point x="490" y="-60" type="line"/>
      <point x="20" y="-60" type="line"/>
      <point x="20" y="-110" type="line"/>
      <point x="490" y="-110" type="line"/>
    </contour>
    <contour>
      <point x="252" y="568" type="move" name="_top"/>
    </contour>
  </outline>
</glyph>
<glyph name="b" format="1">
  <advance width="805"/>
  <unicode hex="0062"/>
  <outline>
    <contour>
      <point x="255" y="791" type="line"/>
      <point x="255" y="791"/>
      <point x="171" y="777"/>
      <point x="90" y="777" type="curve"/>
      <point x="90" y="0" type="line"/>
      <point x="186" y="0" type="line"/>
      <point x="224" y="127" type="line"/>
      <point x="224" y="127"/>
      <point x="273" y="-13"/>
      <point x="452" y="-13" type="curve"/>
      <point x="621" y="-13"/>
      <point x="745" y="107"/>
      <point x="745" y="277" type="curve" smooth="yes"/>
      <point x="745" y="447"/>
      <point x="621" y="568"/>
      <point x="453" y="568" type="curve"/>
      <point x="298" y="568"/>
      <point x="255" y="467"/>
      <point x="255" y="467" type="curve"/>
    </contour>
    <contour>
      <point x="399" y="97" type="curve" smooth="yes"/>
      <point x="278" y="97"/>
      <point x="229" y="185"/>
      <point x="229" y="277" type="curve" smooth="yes"/>
      <point x="229" y="369"/>
      <point x="278" y="458"/>
      <point x="399" y="458" type="curve" smooth="yes"/>
      <point x="518" y="458"/>
      <point x="572" y="378"/>
      <point x="572" y="277" type="curve" smooth="yes"/>
      <point x="572" y="176"/>
      <point x="518" y="97"/>
    </contour>
  </outline>
</glyph>
<glyph name="c" format="1">
  <advance width="777"/>
  <unicode hex="0063"/>
  <outline>
    <contour>
      <point x="567" y="225" type="line"/>
      <point x="567" y="225"/>
      <point x="565" y="97"/>
      <point x="414" y="97" type="curve" smooth="yes"/>
      <point x="296" y="97"/>
      <point x="232" y="169"/>
      <point x="232" y="278" type="curve" smooth="yes"/>
      <point x="232" y="377"/>
      <point x="285" y="458"/>
      <point x="400" y="458" type="curve"/>
      <point x="577" y="458"/>
      <point x="547" y="263"/>
      <point x="547" y="263" type="curve"/>
      <point x="707" y="304" type="line"/>
      <point x="707" y="304"/>
      <point x="732" y="568"/>
      <point x="398" y="568" type="curve"/>
      <point x="190" y="568"/>
      <point x="60" y="443"/>
      <point x="60" y="278" type="curve" smooth="yes"/>
      <point x="60" y="90"/>
      <point x="218" y="-13"/>
      <point x="397" y="-13" type="curve" smooth="yes"/>
      <point x="684" y="-13"/>
      <point x="727" y="184"/>
      <point x="727" y="184" type="curve"/>
    </contour>
  </outline>
</glyph>
<glyph name="g" format="1">
  <advance width="774"/>
  <unicode hex="0067"/>
  <outline>
    <contour>
      <point x="375" y="170" type="curve" smooth="yes"/>
      <point x="570" y="170"/>
      <point x="687" y="256"/>
      <point x="687" y="368" type="curve" smooth="yes"/>
      <point x="687" y="404"/>
      <point x="675" y="437"/>
      <point x="652" y="466" type="curve"/>
      <point x="632" y="503"/>
      <point x="631" y="528"/>
      <point x="688" y="528" type="curve" smooth="yes"/>
      <point x="700" y="528"/>
      <point x="735" y="526"/>
      <point x="774" y="520" type="curve"/>
      <point x="736" y="643" type="line"/>
      <point x="709" y="645"/>
      <point x="678" y="647"/>
      <point x="664" y="647" type="curve" smooth="yes"/>
      <point x="610" y="647"/>
      <point x="577" y="618"/>
      <point x="577" y="568" type="curve" smooth="yes"/>
      <point x="577" y="552"/>
      <point x="587" y="533"/>
      <point x="601" y="512" type="curve"/>
      <point x="547" y="547"/>
      <point x="469" y="568"/>
      <point x="373" y="568" type="curve" smooth="yes"/>
      <point x="175" y="568"/>
      <point x="59" y="481"/>
      <point x="59" y="368" type="curve" smooth="yes"/>
      <point x="59" y="293"/>
      <point x="110" y="231"/>
      <point x="202" y="197" type="curve"/>
      <point x="165" y="192"/>
      <point x="62" y="174"/>
      <point x="62" y="105" type="curve" smooth="yes"/>
      <point x="62" y="23"/>
      <point x="188" y="6"/>
      <point x="201" y="5" type="curve"/>
      <point x="185" y="3"/>
      <point x="30" y="-13"/>
      <point x="30" y="-111" type="curve" smooth="yes"/>
      <point x="30" y="-167"/>
      <point x="83" y="-237"/>
      <point x="258" y="-237" type="curve" smooth="yes"/>
      <point x="479" y="-237" type="line" smooth="yes"/>
      <point x="651" y="-237"/>
      <point x="757" y="-174"/>
      <point x="757" y="-70" type="curve" smooth="yes"/>
      <point x="757" y="9"/>
      <point x="712" y="97"/>
      <point x="529" y="97" type="curve" smooth="yes"/>
      <point x="324" y="97" type="line" smooth="yes"/>
      <point x="257" y="97"/>
      <point x="223" y="108"/>
      <point x="223" y="140" type="curve" smooth="yes"/>
      <point x="223" y="174"/>
      <point x="257" y="178"/>
      <point x="278" y="177" type="curve"/>
      <point x="307" y="172"/>
      <point x="340" y="170"/>
    </contour>
    <contour>
      <point x="226" y="368" type="curve" smooth="yes"/>
      <point x="226" y="427"/>
      <point x="264" y="471"/>
      <point x="373" y="471" type="curve" smooth="yes"/>
      <point x="482" y="471"/>
      <point x="518" y="427"/>
      <point x="518" y="368" type="curve" smooth="yes"/>
      <point x="518" y="311"/>
      <point x="482" y="267"/>
      <point x="373" y="267" type="curve" smooth="yes"/>
      <point x="264" y="267"/>
      <point x="226" y="311"/>
    </contour>
    <contour>
      <point x="496" y="-12" type="line" smooth="yes"/>
      <point x="562" y="-16"/>
      <point x="583" y="-41"/>
      <point x="583" y="-81" type="curve" smooth="yes"/>
      <point x="583" y="-147"/>
      <point x="508" y="-158"/>
      <point x="388" y="-158" type="curve" smooth="yes"/>
      <point x="249" y="-158"/>
      <point x="204" y="-137"/>
      <point x="204" y="-82" type="curve" smooth="yes"/>
      <point x="204" y="0"/>
      <point x="297" y="0"/>
      <point x="301" y="0" type="curve" smooth="yes"/>
    </contour>
  </outline>
</glyph>
<glyph name="h" format="1">
  <advance width="815"/>
  <unicode hex="0068"/>
  <outline>
    <contour>
      <point x="255" y="791" type="line"/>
      <point x="255" y="791"/>
      <point x="181" y="777"/>
      <point x="90" y="777" type="curve"/>
      <point x="90" y="0" type="line"/>
      <point x="255" y="0" type="line"/>
      <point x="255" y="336" type="line"/>
      <point x="255" y="336"/>
      <point x="284" y="458"/>
      <point x="427" y="458" type="curve" smooth="yes"/>
      <point x="505" y="458"/>
      <point x="561" y="422"/>
      <point x="561" y="348" type="curve" smooth="yes"/>
      <point x="561" y="0" type="line"/>
      <point x="725" y="0" type="line"/>
      <point x="725" y="340" type="line" smooth="yes"/>
      <point x="725" y="481"/>
      <point x="644" y="568"/>
      <point x="472" y="568" type="curve" smooth="yes"/>
      <point x="285" y="568"/>
      <point x="257" y="432"/>
      <point x="255" y="419" type="curve"/>
    </contour>
  </outline>
</glyph>
<glyph name="m" format="1">
  <advance width="1203"/>
  <unicode hex="006D"/>
  <outline>
    <contour>
      <point x="1113" y="340" type="line" smooth="yes"/>
      <point x="1113" y="493"/>
      <point x="1032" y="568"/>
      <point x="892" y="568" type="curve" smooth="yes"/>
      <point x="687" y="568"/>
      <point x="664" y="414"/>
      <point x="662" y="399" type="curve"/>
      <point x="662" y="405"/>
      <point x="658" y="568"/>
      <point x="463" y="568" type="curve" smooth="yes"/>
      <point x="247" y="568"/>
      <point x="233" y="398"/>
      <point x="233" y="398" type="curve"/>
      <point x="186" y="555" type="line"/>
      <point x="90" y="555" type="line"/>
      <point x="90" y="0" type="line"/>
      <point x="255" y="0" type="line"/>
      <point x="255" y="336" type="line"/>
      <point x="255" y="336"/>
      <point x="289" y="458"/>
      <point x="409" y="458" type="curve" smooth="yes"/>
      <point x="508" y="458"/>
      <point x="519" y="396"/>
      <point x="519" y="343" type="curve" smooth="yes"/>
      <point x="519" y="0" type="line"/>
      <point x="684" y="0" type="line"/>
      <point x="684" y="336" type="line"/>
      <point x="684" y="336"/>
      <point x="718" y="458"/>
      <point x="838" y="458" type="curve" smooth="yes"/>
      <point x="937" y="458"/>
      <point x="948" y="396"/>
      <point x="948" y="343" type="curve" smooth="yes"/>
      <point x="948" y="0" type="line"/>
      <point x="1113" y="0" type="line"/>
    </contour>
  </outline>
</glyph>
<glyph name="p" format="1">
  <advance width="805"/>
  <unicode hex="0070"/>
  <outline>
    <contour>
      <point x="255" y="89" type="line"/>
      <point x="255" y="89"/>
      <point x="298" y="-13"/>
      <point x="453" y="-13" type="curve" smooth="yes"/>
      <point x="621" y="-13"/>
      <point x="745" y="108"/>
      <point x="745" y="278" type="curve" smooth="yes"/>
      <point x="745" y="448"/>
      <point x="621" y="568"/>
      <point x="452" y="568" type="curve" smooth="yes"/>
      <point x="273" y="568"/>
      <point x="224" y="428"/>
      <point x="224" y="428" type="curve"/>
      <point x="186" y="555" type="line"/>
      <point x="90" y="555" type="line"/>
      <point x="90" y="-223" type="line"/>
      <point x="255" y="-223" type="line"/>
    </contour>
    <contour>
      <point x="399" y="458" type="curve" smooth="yes"/>
      <point x="518" y="458"/>
      <point x="572" y="379"/>
      <point x="572" y="278" type="curve" smooth="yes"/>
      <point x="572" y="177"/>
      <point x="518" y="97"/>
      <point x="399" y="97" type="curve" smooth="yes"/>
      <point x="278" y="97"/>
      <point x="229" y="186"/>
      <point x="229" y="278" type="curve" smooth="yes"/>
      <point x="229" y="370"/>
      <point x="278" y="458"/>
    </contour>
  </outline>
</glyph>
<glyph name="v" format="1">
  <advance width="748"/>
  <unicode hex="0076"/>
  <outline>
    <contour>
      <point x="738" y="555" type="line"/>
      <point x="557" y="555" type="line"/>
      <point x="374" y="146" type="line"/>
      <point x="191" y="555" type="line"/>
      <point x="10" y="555" type="line"/>
      <point x="294" y="0" type="line"/>
      <point x="454" y="0" type="line"/>
    </contour>
  </outline>
</glyph>
<glyph name="w" format="1">
  <advance width="1097"/>
  <unicode hex="0077"/>
  <outline>
    <contour>
      <point x="246" y="0" type="line"/>
      <point x="409" y="0" type="line"/>
      <point x="548" y="401" type="line"/>
      <point x="688" y="0" type="line"/>
      <point x="851" y="0" type="line"/>
      <point x="1087" y="555" type="line"/>
      <point x="906" y="555" type="line"/>
      <point x="764" y="146" type="line"/>
      <point x="628" y="555" type="line"/>
      <point x="469" y="555" type="line"/>
      <point x="333" y="146" type="line"/>
      <point x="191" y="555" type="line"/>
      <point x="10" y="555" type="line"/>
    </contour>
  </outline>
</glyph>
<glyph name="bar" format="1">
  <advance width="170"/>
  <unicode hex="007C"/>
  <outline>
    <contour>
      <point x="60" y="729" type="line" name="hr00"/>
      <point x="60" y="-110" type="line"/>
      <point x="110" y="-110" type="line"/>
      <point x="110" y="729" type="line"/>
    </contour>
  </outline>
</glyph>
<glyph name="braceright" format="1">
  <advance width="306"/>
  <unicode hex="007D"/>
  <outline>
    <contour>
      <point x="276" y="382" type="line" name="hr00"/>
      <point x="236" y="383"/>
      <point x="177" y="398"/>
      <point x="188" y="470" type="curve" smooth="yes"/>
      <point x="209" y="606" type="line" smooth="yes"/>
      <point x="229" y="734"/>
      <point x="137" y="781"/>
      <point x="25" y="787" type="curve"/>
      <point x="20" y="746" type="line"/>
      <point x="108" y="737"/>
      <point x="164" y="705"/>
      <point x="151" y="597" type="curve" smooth="yes"/>
      <point x="135" y="465" type="line" smooth="yes"/>
      <point x="124" y="378"/>
      <point x="181" y="343"/>
      <point x="225" y="337" type="curve"/>
      <point x="181" y="331"/>
      <point x="124" y="296"/>
      <point x="135" y="209" type="curve" smooth="yes"/>
      <point x="151" y="77" type="line" smooth="yes"/>
      <point x="164" y="-31"/>
      <point x="108" y="-63"/>
      <point x="20" y="-72" type="curve"/>
      <point x="25" y="-112" type="line"/>
      <point x="137" y="-106"/>
      <point x="229" y="-60"/>
      <point x="209" y="68" type="curve" smooth="yes"/>
      <point x="188" y="204" type="line" smooth="yes"/>
      <point x="177" y="276"/>
      <point x="236" y="291"/>
      <point x="276" y="292" type="curve"/>
    </contour>
  </outline>
</glyph>
<glyph name="sterling" format="1">
  <advance width="880"/>
  <unicode hex="00A3"/>
  <outline>
    <contour>
      <point x="570" y="391" type="line"/>
      <point x="343" y="391" type="line"/>
      <point x="311" y="418" type="line" smooth="yes"/>
      <point x="269" y="454"/>
      <point x="224" y="494"/>
      <point x="224" y="552" type="curve" smooth="yes"/>
      <point x="224" y="618"/>
      <point x="283" y="668"/>
      <point x="392" y="668" type="curve" smooth="yes"/>
      <point x="600" y="668"/>
      <point x="587" y="457"/>
      <point x="587" y="457" type="curve"/>
      <point x="772" y="508" type="line"/>
      <point x="772" y="508"/>
      <point x="781" y="790"/>
      <point x="411" y="790" type="curve" smooth="yes"/>
      <point x="145" y="790"/>
      <point x="40" y="661"/>
      <point x="40" y="538" type="curve" smooth="yes"/>
      <point x="40" y="472"/>
      <point x="69" y="427"/>
      <point x="107" y="391" type="curve"/>
      <point x="0" y="391" type="line"/>
      <point x="0" y="341" type="line"/>
      <point x="170" y="341" type="line"/>
      <point x="174" y="338"/>
      <point x="178" y="335"/>
      <point x="182" y="333" type="curve"/>
      <point x="228" y="299"/>
      <point x="272" y="258"/>
      <point x="277" y="215" type="curve"/>
      <point x="277" y="215"/>
      <point x="219" y="260"/>
      <point x="146" y="260" type="curve" smooth="yes"/>
      <point x="44" y="260"/>
      <point x="-11" y="204"/>
      <point x="-11" y="124" type="curve" smooth="yes"/>
      <point x="-11" y="45"/>
      <point x="55" y="-13"/>
      <point x="170" y="-13" type="curve" smooth="yes"/>
      <point x="260" y="-13"/>
      <point x="311" y="19"/>
      <point x="334" y="39" type="curve"/>
      <point x="334" y="39"/>
      <point x="431" y="-13"/>
      <point x="514" y="-13" type="curve" smooth="yes"/>
      <point x="828" y="-13"/>
      <point x="844" y="312"/>
      <point x="844" y="312" type="curve"/>
      <point x="659" y="360" type="line"/>
      <point x="659" y="360"/>
      <point x="672" y="110"/>
      <point x="496" y="110" type="curve" smooth="yes"/>
      <point x="454" y="110"/>
      <point x="426" y="124"/>
      <point x="411" y="134" type="curve"/>
      <point x="422" y="160"/>
      <point x="428" y="185"/>
      <point x="428" y="223" type="curve" smooth="yes"/>
      <point x="428" y="272"/>
      <point x="412" y="310"/>
      <point x="390" y="341" type="curve"/>
      <point x="570" y="341" type="line"/>
    </contour>
    <contour>
      <point x="164" y="81" type="curve" smooth="yes"/>
      <point x="122" y="81"/>
      <point x="102" y="105"/>
      <point x="102" y="126" type="curve" smooth="yes"/>
      <point x="102" y="147"/>
      <point x="114" y="170"/>
      <point x="146" y="170" type="curve" smooth="yes"/>
      <point x="182" y="170"/>
      <point x="204" y="147"/>
      <point x="235" y="117" type="curve"/>
      <point x="235" y="117"/>
      <point x="214" y="81"/>
    </contour>
  </outline>
</glyph>
<glyph name="yen" format="1">
  <advance width="880"/>
  <unicode hex="00A5"/>
  <outline>
    <contour>
      <point x="351" y="365" type="line"/>
      <point x="351" y="332" type="line"/>
      <point x="155" y="332" type="line"/>
      <point x="155" y="282" type="line"/>
      <point x="351" y="282" type="line"/>
      <point x="351" y="172" type="line"/>
      <point x="155" y="172" type="line"/>
      <point x="155" y="122" type="line"/>
      <point x="351" y="122" type="line"/>
      <point x="351" y="0" type="line"/>
      <point x="529" y="0" type="line"/>
      <point x="529" y="122" type="line"/>
      <point x="725" y="122" type="line"/>
      <point x="725" y="172" type="line"/>
      <point x="529" y="172" type="line"/>
      <point x="529" y="282" type="line"/>
      <point x="725" y="282" type="line"/>
      <point x="725" y="332" type="line"/>
      <point x="529" y="332" type="line"/>
      <point x="529" y="365" type="line"/>
      <point x="880" y="777" type="line"/>
      <point x="663" y="777" type="line"/>
      <point x="440" y="485" type="line"/>
      <point x="217" y="777" type="line"/>
      <point x="0" y="777" type="line"/>
    </contour>
  </outline>
</glyph>
<glyph name="brokenbar" format="1">
  <advance width="170"/>
  <unicode hex="00A6"/>
  <outline>
    <contour>
      <point x="60" y="729" type="line"/>
      <point x="60" y="394" type="line"/>
      <point x="110" y="394" type="line"/>
      <point x="110" y="729" type="line"/>
    </contour>
    <contour>
      <point x="60" y="225" type="line" name="hr00"/>
      <point x="60" y="-110" type="line"/>
      <point x="110" y="-110" type="line"/>
      <point x="110" y="225" type="line"/>
    </contour>
  </outline>
</glyph>
<glyph name="dieresis" format="1">
  <advance width="358"/>
  <unicode hex="00A8"/>
  <outline>
    <contour>
      <point x="-10" y="627" type="line"/>
      <point x="128" y="627" type="line"/>
      <point x="128" y="777" type="line"/>
      <point x="-10" y="777" type="line"/>
    </contour>
    <contour>
      <point x="230" y="627" type="line"/>
      <point x="368" y="627" type="line"/>
      <point x="368" y="777" type="line"/>
      <point x="230" y="777" type="line"/>
    </contour>
    <contour>
      <point x="179" y="613" type="move" name="_top"/>
    </contour>
  </outline>
</glyph>
<glyph name="copyright" format="1">
  <advance width="1064"/>
  <unicode hex="00A9"/>
  <outline>
    <contour>
      <point x="60" y="311" type="curve" smooth="yes"/>
      <point x="60" y="46"/>
      <point x="267" y="-161"/>
      <point x="532" y="-161" type="curve" smooth="yes"/>
      <point x="797" y="-161"/>
      <point x="1004" y="46"/>
      <point x="1004" y="311" type="curve" smooth="yes"/>
      <point x="1004" y="576"/>
      <point x="797" y="783"/>
      <point x="532" y="783" type="curve" smooth="yes"/>
      <point x="267" y="783"/>
      <point x="60" y="576"/>
    </contour>
    <contour>
      <point x="116" y="310" type="curve" smooth="yes"/>
      <point x="116" y="541"/>
      <point x="301" y="726"/>
      <point x="532" y="726" type="curve" smooth="yes"/>
      <point x="763" y="726"/>
      <point x="948" y="541"/>
      <point x="948" y="310" type="curve" smooth="yes"/>
      <point x="948" y="79"/>
      <point x="763" y="-106"/>
      <point x="532" y="-106" type="curve" smooth="yes"/>
      <point x="301" y="-106"/>
      <point x="116" y="79"/>
    </contour>
    <contour>
      <point x="835" y="387" type="line"/>
      <point x="835" y="387"/>
      <point x="821" y="607"/>
      <point x="526" y="607" type="curve" smooth="yes"/>
      <point x="325" y="607"/>
      <point x="212" y="481"/>
      <point x="212" y="311" type="curve" smooth="yes"/>
      <point x="212" y="141"/>
      <point x="333" y="14"/>
      <point x="532" y="14" type="curve" smooth="yes"/>
      <point x="815" y="14"/>
      <point x="840" y="236"/>
      <point x="840" y="236" type="curve"/>
      <point x="698" y="276" type="line"/>
      <point x="698" y="276"/>
      <point x="704" y="133"/>
      <point x="532" y="133" type="curve" smooth="yes"/>
      <point x="421" y="133"/>
      <point x="355" y="210"/>
      <point x="355" y="311" type="curve" smooth="yes"/>
      <point x="355" y="412"/>
      <point x="415" y="488"/>
      <point x="526" y="488" type="curve" smooth="yes"/>
      <point x="697" y="488"/>
      <point x="693" y="345"/>
      <point x="693" y="345" type="curve"/>
    </contour>
  </outline>
</glyph>
<glyph name="guillemotleft" format="1">
  <advance width="689"/>
  <unicode hex="00AB"/>
  <outline>
    <contour>
      <point x="30" y="277" type="line"/>
      <point x="231" y="58" type="line"/>
      <point x="359" y="58" type="line"/>
      <point x="208" y="277" type="line"/>
      <point x="359" y="496" type="line"/>
      <point x="231" y="496" type="line"/>
    </contour>
    <contour>
      <point x="330" y="277" type="line"/>
      <point x="531" y="58" type="line"/>
      <point x="659" y="58" type="line"/>
      <point x="508" y="277" type="line"/>
      <point x="659" y="496" type="line"/>
      <point x="531" y="496" type="line"/>
    </contour>
  </outline>
</glyph>
<glyph name="periodcentered" format="1">
  <advance width="545"/>
  <unicode hex="00B7"/>
  <outline>
    <contour>
      <point x="72" y="280" type="curve" smooth="yes"/>
      <point x="72" y="171"/>
      <point x="162" y="81"/>
      <point x="272" y="81" type="curve" smooth="yes"/>
      <point x="383" y="81"/>
      <point x="473" y="171"/>
      <point x="473" y="280" type="curve" smooth="yes"/>
      <point x="473" y="392"/>
      <point x="383" y="481"/>
      <point x="272" y="481" type="curve" smooth="yes"/>
      <point x="162" y="481"/>
      <point x="72" y="392"/>
    </contour>
  </outline>
</glyph>
<glyph name="guillemotright" format="1">
  <advance width="689"/>
  <unicode hex="00BB"/>
  <outline>
    <contour>
      <point x="158" y="496" type="line"/>
      <point x="30" y="496" type="line"/>
      <point x="181" y="277" type="line"/>
      <point x="30" y="58" type="line"/>
      <point x="158" y="58" type="line"/>
      <point x="359" y="277" type="line"/>
    </contour>
    <contour>
      <point x="458" y="496" type="line"/>
      <point x="330" y="496" type="line"/>
      <point x="481" y="277" type="line"/>
      <point x="330" y="58" type="line"/>
      <point x="458" y="58" type="line"/>
      <point x="659" y="277" type="line"/>
    </contour>
  </outline>
</glyph>
<glyph name="threequarters" format="1">
  <advance width="778"/>
  <unicode hex="00BE"/>
  <outline>
    <contour>
      <point x="168" y="574" type="line" smooth="yes"/>
      <point x="226" y="574"/>
      <point x="276" y="559"/>
      <point x="276" y="507" type="curve" smooth="yes"/>
      <point x="276" y="462"/>
      <point x="238" y="438"/>
      <point x="178" y="438" type="curve" smooth="yes"/>
      <point x="59" y="438"/>
      <point x="67" y="543"/>
      <point x="67" y="543" type="curve"/>
      <point x="0" y="523" type="line"/>
      <point x="0" y="523"/>
      <point x="5" y="389"/>
      <point x="180" y="389" type="curve" smooth="yes"/>
      <point x="268" y="389"/>
      <point x="345" y="425"/>
      <point x="345" y="506" type="curve" smooth="yes"/>
      <point x="345" y="598"/>
      <point x="251" y="603"/>
      <point x="235" y="604" type="curve"/>
      <point x="255" y="605"/>
      <point x="335" y="614"/>
      <point x="335" y="689" type="curve" smooth="yes"/>
      <point x="335" y="746"/>
      <point x="276" y="791"/>
      <point x="186" y="791" type="curve" smooth="yes"/>
      <point x="35" y="791"/>
      <point x="20" y="670"/>
      <point x="20" y="670" type="curve"/>
      <point x="87" y="650" type="line"/>
      <point x="87" y="650"/>
      <point x="80" y="742"/>
      <point x="183" y="742" type="curve" smooth="yes"/>
      <point x="233" y="742"/>
      <point x="266" y="716"/>
      <point x="266" y="680" type="curve" smooth="yes"/>
      <point x="266" y="640"/>
      <point x="227" y="616"/>
      <point x="168" y="616" type="curve" smooth="yes"/>
      <point x="143" y="616" type="line"/>
      <point x="143" y="574" type="line"/>
    </contour>
    <contour>
      <point x="582" y="784" type="line"/>
      <point x="171" y="20" type="line"/>
      <point x="217" y="-3" type="line"/>
      <point x="630" y="760" type="line"/>
    </contour>
    <contour>
      <point x="403" y="94" type="line" name="hr00"/>
      <point x="635" y="94" type="line"/>
      <point x="635" y="0" type="line"/>
      <point x="700" y="0" type="line"/>
      <point x="700" y="94" type="line"/>
      <point x="778" y="94" type="line"/>
      <point x="778" y="136" type="line"/>
      <point x="700" y="136" type="line"/>
      <point x="700" y="388" type="line"/>
      <point x="614" y="388" type="line"/>
      <point x="403" y="156" type="line"/>
    </contour>
    <contour>
      <point x="635" y="341" type="line"/>
      <point x="635" y="136" type="line"/>
      <point x="453" y="136" type="line"/>
    </contour>
  </outline>
</glyph>
<glyph name="Aring" format="1">
  <advance width="1063"/>
  <unicode hex="00C5"/>
  <outline>
    <contour>
      <point x="426" y="971" type="curve" smooth="yes"/>
      <point x="426" y="912"/>
      <point x="476" y="862"/>
      <point x="545" y="862" type="curve" smooth="yes"/>
      <point x="615" y="862"/>
      <point x="666" y="912"/>
      <point x="666" y="971" type="curve" smooth="yes"/>
      <point x="666" y="1035"/>
      <point x="618" y="1082"/>
      <point x="545" y="1082" type="curve" smooth="yes"/>
      <point x="475" y="1082"/>
      <point x="426" y="1031"/>
    </contour>
    <contour>
      <point x="502" y="972" type="curve" smooth="yes"/>
      <point x="502" y="1000"/>
      <point x="523" y="1016"/>
      <point x="546" y="1016" type="curve" smooth="yes"/>
      <point x="569" y="1016"/>
      <point x="590" y="997"/>
      <point x="590" y="972" type="curve" smooth="yes"/>
      <point x="590" y="946"/>
      <point x="569" y="928"/>
      <point x="546" y="928" type="curve" smooth="yes"/>
      <point x="523" y="928"/>
      <point x="502" y="944"/>
    </contour>
    <contour>
      <point x="861" y="0" type="line"/>
      <point x="1053" y="0" type="line"/>
      <point x="686" y="777" type="line"/>
      <point x="377" y="777" type="line"/>
      <point x="10" y="0" type="line"/>
      <point x="201" y="0" type="line"/>
      <point x="308" y="235" type="line"/>
      <point x="754" y="235" type="line"/>
    </contour>
    <contour>
      <point x="506" y="668" type="line"/>
      <point x="557" y="668" type="line"/>
      <point x="704" y="345" type="line"/>
      <point x="358" y="345" type="line"/>
    </contour>
  </outline>
</glyph>
<glyph name="Ccedilla" format="1">
  <advance width="1073"/>
  <unicode hex="00C7"/>
  <outline>
    <contour>
      <point x="1001" y="452" type="line"/>
      <point x="1001" y="452"/>
      <point x="1004" y="791"/>
      <point x="538" y="791" type="curve" smooth="yes"/>
      <point x="247" y="791"/>
      <point x="60" y="623"/>
      <point x="60" y="389" type="curve" smooth="yes"/>
      <point x="60" y="171"/>
      <point x="227" y="9"/>
      <point x="484" y="-10" type="curve"/>
      <point x="454" y="-96" type="line"/>
      <point x="506" y="-106" type="line"/>
      <point x="506" y="-106"/>
      <point x="519" y="-84"/>
      <point x="545" y="-84" type="curve" smooth="yes"/>
      <point x="570" y="-84"/>
      <point x="587" y="-100"/>
      <point x="587" y="-124" type="curve" smooth="yes"/>
      <point x="587" y="-152"/>
      <point x="561" y="-169"/>
      <point x="520" y="-169" type="curve" smooth="yes"/>
      <point x="458" y="-169"/>
      <point x="425" y="-125"/>
      <point x="424" y="-122" type="curve"/>
      <point x="406" y="-190" type="line"/>
      <point x="406" y="-190"/>
      <point x="446" y="-237"/>
      <point x="530" y="-237" type="curve" smooth="yes"/>
      <point x="598" y="-237"/>
      <point x="667" y="-198"/>
      <point x="667" y="-124" type="curve" smooth="yes"/>
      <point x="667" y="-71"/>
      <point x="632" y="-38"/>
      <point x="580" y="-38" type="curve" smooth="yes"/>
      <point x="547" y="-38"/>
      <point x="526" y="-55"/>
      <point x="526" y="-55" type="curve"/>
      <point x="541" y="-13" type="line"/>
      <point x="977" y="-12"/>
      <point x="1023" y="291"/>
      <point x="1023" y="291" type="curve"/>
      <point x="840" y="338" type="line"/>
      <point x="840" y="338"/>
      <point x="844" y="110"/>
      <point x="539" y="110" type="curve" smooth="yes"/>
      <point x="363" y="110"/>
      <point x="245" y="217"/>
      <point x="245" y="389" type="curve" smooth="yes"/>
      <point x="245" y="552"/>
      <point x="345" y="668"/>
      <point x="539" y="668" type="curve" smooth="yes"/>
      <point x="848" y="668"/>
      <point x="818" y="402"/>
      <point x="818" y="402" type="curve"/>
    </contour>
  </outline>
</glyph>
<glyph name="Egrave" format="1">
  <advance width="815"/>
  <unicode hex="00C8"/>
  <outline>
    <contour>
      <point x="213" y="1018" type="line"/>
      <point x="442" y="875" type="line"/>
      <point x="559" y="875" type="line"/>
      <point x="423" y="1018" type="line"/>
    </contour>
    <contour>
      <point x="90" y="0" type="line"/>
      <point x="775" y="0" type="line"/>
      <point x="775" y="110" type="line"/>
      <point x="268" y="110" type="line"/>
      <point x="268" y="333" type="line"/>
      <point x="716" y="333" type="line"/>
      <point x="716" y="442" type="line"/>
      <point x="268" y="442" type="line"/>
      <point x="268" y="668" type="line"/>
      <point x="745" y="668" type="line"/>
      <point x="745" y="777" type="line"/>
      <point x="90" y="777" type="line"/>
    </contour>
  </outline>
</glyph>
<glyph name="Eacute" format="1">
  <advance width="815"/>
  <unicode hex="00C9"/>
  <outline>
    <contour>
      <point x="459" y="1019" type="line"/>
      <point x="323" y="875" type="line"/>
      <point x="440" y="875" type="line"/>
      <point x="669" y="1019" type="line"/>
    </contour>
    <contour>
      <point x="90" y="0" type="line"/>
      <point x="775" y="0" type="line"/>
      <point x="775" y="110" type="line"/>
      <point x="268" y="110" type="line"/>
      <point x="268" y="333" type="line"/>
      <point x="716" y="333" type="line"/>
      <point x="716" y="442" type="line"/>
      <point x="268" y="442" type="line"/>
      <point x="268" y="668" type="line"/>
      <point x="745" y="668" type="line"/>
      <point x="745" y="777" type="line"/>
      <point x="90" y="777" type="line"/>
    </contour>
  </outline>
</glyph>
<glyph name="Iacute" format="1">
  <advance width="358"/>
  <unicode hex="00CD"/>
  <outline>
    <contour>
      <point x="216" y="1019" type="line"/>
      <point x="80" y="875" type="line"/>
      <point x="197" y="875" type="line"/>
      <point x="426" y="1019" type="line"/>
    </contour>
    <contour>
      <point x="90" y="777" type="line"/>
      <point x="90" y="0" type="line"/>
      <point x="268" y="0" type="line"/>
      <point x="268" y="777" type="line"/>
    </contour>
  </outline>
</glyph>
<glyph name="Ntilde" format="1">
  <advance width="1007"/>
  <unicode hex="00D1"/>
  <outline>
    <contour>
      <point x="594" y="960" type="curve"/>
      <point x="527" y="960"/>
      <point x="502" y="1026"/>
      <point x="417" y="1026" type="curve"/>
      <point x="324" y="1026"/>
      <point x="301" y="918"/>
      <point x="301" y="918" type="curve"/>
      <point x="341" y="862" type="line"/>
      <point x="341" y="862"/>
      <point x="355" y="928"/>
      <point x="413" y="928" type="curve"/>
      <point x="483" y="928"/>
      <point x="504" y="862"/>
      <point x="591" y="862" type="curve" smooth="yes"/>
      <point x="684" y="862"/>
      <point x="707" y="970"/>
      <point x="707" y="970" type="curve"/>
      <point x="667" y="1026" type="line"/>
      <point x="667" y="1026"/>
      <point x="654" y="960"/>
    </contour>
    <contour>
      <point x="917" y="777" type="line"/>
      <point x="739" y="777" type="line"/>
      <point x="739" y="170" type="line"/>
      <point x="333" y="777" type="line"/>
      <point x="90" y="777" type="line"/>
      <point x="90" y="0" type="line"/>
      <point x="268" y="0" type="line"/>
      <point x="268" y="607" type="line"/>
      <point x="674" y="0" type="line"/>
      <point x="917" y="0" type="line"/>
    </contour>
  </outline>
</glyph>
<glyph name="Oacute" format="1">
  <advance width="1110"/>
  <unicode hex="00D3"/>
  <outline>
    <contour>
      <point x="578" y="1019" type="line"/>
      <point x="442" y="875" type="line"/>
      <point x="559" y="875" type="line"/>
      <point x="788" y="1019" type="line"/>
    </contour>
    <contour>
      <point x="60" y="389" type="curve"/>
      <point x="60" y="155"/>
      <point x="255" y="-13"/>
      <point x="555" y="-13" type="curve" smooth="yes"/>
      <point x="855" y="-13"/>
      <point x="1050" y="155"/>
      <point x="1050" y="389" type="curve" smooth="yes"/>
      <point x="1050" y="623"/>
      <point x="855" y="791"/>
      <point x="555" y="791" type="curve" smooth="yes"/>
      <point x="255" y="791"/>
      <point x="60" y="623"/>
    </contour>
    <contour>
      <point x="245" y="389" type="curve"/>
      <point x="245" y="542"/>
      <point x="339" y="668"/>
      <point x="555" y="668" type="curve" smooth="yes"/>
      <point x="771" y="668"/>
      <point x="865" y="542"/>
      <point x="865" y="389" type="curve" smooth="yes"/>
      <point x="865" y="236"/>
      <point x="771" y="110"/>
      <point x="555" y="110" type="curve" smooth="yes"/>
      <point x="339" y="110"/>
      <point x="245" y="236"/>
    </contour>
  </outline>
</glyph>
<glyph name="Oslash" format="1">
  <advance width="1110"/>
  <unicode hex="00D8"/>
  <outline>
    <contour>
      <point x="60" y="389" type="curve" smooth="yes"/>
      <point x="60" y="199"/>
      <point x="188" y="53"/>
      <point x="396" y="4" type="curve"/>
      <point x="365" y="-90" type="line"/>
      <point x="414" y="-105" type="line"/>
      <point x="447" y="-5" type="line"/>
      <point x="481" y="-10"/>
      <point x="517" y="-13"/>
      <point x="555" y="-13" type="curve" smooth="yes"/>
      <point x="855" y="-13"/>
      <point x="1050" y="155"/>
      <point x="1050" y="389" type="curve" smooth="yes"/>
      <point x="1050" y="581"/>
      <point x="919" y="728"/>
      <point x="706" y="775" type="curve"/>
      <point x="737" y="866" type="line"/>
      <point x="686" y="882" type="line"/>
      <point x="654" y="784" type="line"/>
      <point x="622" y="789"/>
      <point x="589" y="791"/>
      <point x="555" y="791" type="curve" smooth="yes"/>
      <point x="255" y="791"/>
      <point x="60" y="623"/>
    </contour>
    <contour>
      <point x="245" y="389" type="curve" smooth="yes"/>
      <point x="245" y="542"/>
      <point x="339" y="668"/>
      <point x="555" y="668" type="curve" smooth="yes"/>
      <point x="576" y="668"/>
      <point x="595" y="667"/>
      <point x="614" y="664" type="curve"/>
      <point x="436" y="125" type="line"/>
      <point x="304" y="163"/>
      <point x="245" y="267"/>
    </contour>
    <contour>
      <point x="865" y="389" type="curve" smooth="yes"/>
      <point x="865" y="236"/>
      <point x="771" y="110"/>
      <point x="555" y="110" type="curve" smooth="yes"/>
      <point x="531" y="110"/>
      <point x="508" y="111"/>
      <point x="487" y="114" type="curve"/>
      <point x="666" y="654" type="line"/>
      <point x="803" y="618"/>
      <point x="865" y="512"/>
    </contour>
  </outline>
</glyph>
<glyph name="germandbls" format="1">
  <advance width="754"/>
  <unicode hex="00DF"/>
  <outline>
    <contour>
      <point x="694" y="177" type="curve" smooth="yes"/>
      <point x="694" y="309"/>
      <point x="603" y="365"/>
      <point x="500" y="392" type="curve"/>
      <point x="500" y="392"/>
      <point x="675" y="432"/>
      <point x="675" y="584" type="curve"/>
      <point x="675" y="675"/>
      <point x="599" y="791"/>
      <point x="373" y="791" type="curve" smooth="yes"/>
      <point x="141" y="791"/>
      <point x="90" y="675"/>
      <point x="90" y="571" type="curve"/>
      <point x="90" y="0" type="line"/>
      <point x="253" y="0" type="line"/>
      <point x="253" y="552" type="line"/>
      <point x="253" y="618"/>
      <point x="287" y="680"/>
      <point x="377" y="680" type="curve" smooth="yes"/>
      <point x="463" y="680"/>
      <point x="502" y="619"/>
      <point x="502" y="556" type="curve" smooth="yes"/>
      <point x="502" y="471"/>
      <point x="421" y="429"/>
      <point x="300" y="429" type="curve"/>
      <point x="300" y="332" type="line"/>
      <point x="419" y="332"/>
      <point x="521" y="289"/>
      <point x="521" y="183" type="curve" smooth="yes"/>
      <point x="521" y="136"/>
      <point x="501" y="97"/>
      <point x="451" y="97" type="curve"/>
      <point x="374" y="97"/>
      <point x="331" y="177"/>
      <point x="331" y="177" type="curve"/>
      <point x="299" y="69" type="line"/>
      <point x="299" y="69"/>
      <point x="345" y="-13"/>
      <point x="489" y="-13" type="curve" smooth="yes"/>
      <point x="597" y="-13"/>
      <point x="694" y="58"/>
    </contour>
  </outline>
</glyph>
<glyph name="ae" format="1">
  <advance width="1192"/>
  <unicode hex="00E6"/>
  <outline>
    <contour>
      <point x="631" y="268" type="curve"/>
      <point x="1117" y="258" type="line"/>
      <point x="1132" y="337"/>
      <point x="1115" y="568"/>
      <point x="802" y="568" type="curve" smooth="yes"/>
      <point x="701" y="568"/>
      <point x="623" y="538"/>
      <point x="569" y="488" type="curve"/>
      <point x="531" y="536"/>
      <point x="466" y="568"/>
      <point x="363" y="568" type="curve" smooth="yes"/>
      <point x="83" y="568"/>
      <point x="30" y="379"/>
      <point x="30" y="379" type="curve"/>
      <point x="202" y="335" type="line"/>
      <point x="202" y="335"/>
      <point x="203" y="458"/>
      <point x="355" y="458" type="curve" smooth="yes"/>
      <point x="457" y="458"/>
      <point x="469" y="396"/>
      <point x="469" y="345" type="curve"/>
      <point x="165" y="319"/>
      <point x="56" y="212"/>
      <point x="56" y="119" type="curve" smooth="yes"/>
      <point x="56" y="35"/>
      <point x="118" y="-13"/>
      <point x="220" y="-13" type="curve" smooth="yes"/>
      <point x="373" y="-13"/>
      <point x="463" y="120"/>
      <point x="498" y="184" type="curve"/>
      <point x="536" y="56"/>
      <point x="655" y="-13"/>
      <point x="802" y="-13" type="curve" smooth="yes"/>
      <point x="1090" y="-13"/>
      <point x="1132" y="184"/>
      <point x="1132" y="184" type="curve"/>
      <point x="972" y="225" type="line"/>
      <point x="972" y="225"/>
      <point x="971" y="97"/>
      <point x="819" y="97" type="curve" smooth="yes"/>
      <point x="684" y="97"/>
      <point x="632" y="182"/>
    </contour>
    <contour>
      <point x="946" y="356" type="curve"/>
      <point x="641" y="346" type="line"/>
      <point x="641" y="346"/>
      <point x="661" y="463"/>
      <point x="799" y="463" type="curve" smooth="yes"/>
      <point x="932" y="463"/>
      <point x="946" y="356"/>
    </contour>
    <contour>
      <point x="228" y="153" type="curve" smooth="yes"/>
      <point x="228" y="206"/>
      <point x="287" y="265"/>
      <point x="469" y="272" type="curve"/>
      <point x="469" y="253" type="line"/>
      <point x="469" y="253"/>
      <point x="402" y="97"/>
      <point x="286" y="97" type="curve" smooth="yes"/>
      <point x="236" y="97"/>
      <point x="228" y="129"/>
    </contour>
  </outline>
</glyph>
<glyph name="ecircumflex" format="1">
  <advance width="787"/>
  <unicode hex="00EA"/>
  <outline>
    <contour>
      <point x="319" y="792" type="line"/>
      <point x="133" y="648" type="line"/>
      <point x="230" y="648" type="line"/>
      <point x="394" y="710" type="line"/>
      <point x="558" y="648" type="line"/>
      <point x="655" y="648" type="line"/>
      <point x="469" y="792" type="line"/>
    </contour>
    <contour>
      <point x="226" y="268" type="curve"/>
      <point x="712" y="258" type="line"/>
      <point x="727" y="337"/>
      <point x="710" y="568"/>
      <point x="397" y="568" type="curve"/>
      <point x="190" y="568"/>
      <point x="60" y="443"/>
      <point x="60" y="278" type="curve" smooth="yes"/>
      <point x="60" y="90"/>
      <point x="218" y="-13"/>
      <point x="397" y="-13" type="curve" smooth="yes"/>
      <point x="685" y="-13"/>
      <point x="727" y="184"/>
      <point x="727" y="184" type="curve"/>
      <point x="567" y="225" type="line"/>
      <point x="567" y="225"/>
      <point x="566" y="97"/>
      <point x="414" y="97" type="curve" smooth="yes"/>
      <point x="279" y="97"/>
      <point x="227" y="182"/>
    </contour>
    <contour>
      <point x="541" y="356" type="curve"/>
      <point x="236" y="346" type="line"/>
      <point x="236" y="346"/>
      <point x="256" y="463"/>
      <point x="394" y="463" type="curve"/>
      <point x="527" y="463"/>
      <point x="541" y="356"/>
    </contour>
  </outline>
</glyph>
<glyph name="ntilde" format="1">
  <advance width="815"/>
  <unicode hex="00F1"/>
  <outline>
    <contour>
      <point x="512" y="760" type="curve"/>
      <point x="445" y="760"/>
      <point x="420" y="826"/>
      <point x="335" y="826" type="curve"/>
      <point x="242" y="826"/>
      <point x="219" y="718"/>
      <point x="219" y="718" type="curve"/>
      <point x="259" y="662" type="line"/>
      <point x="259" y="662"/>
      <point x="273" y="728"/>
      <point x="331" y="728" type="curve"/>
      <point x="401" y="728"/>
      <point x="422" y="662"/>
      <point x="509" y="662" type="curve" smooth="yes"/>
      <point x="602" y="662"/>
      <point x="625" y="770"/>
      <point x="625" y="770" type="curve"/>
      <point x="585" y="826" type="line"/>
      <point x="585" y="826"/>
      <point x="572" y="760"/>
    </contour>
    <contour>
      <point x="560" y="0" type="line"/>
      <point x="725" y="0" type="line"/>
      <point x="725" y="340" type="line"/>
      <point x="725" y="481"/>
      <point x="649" y="568"/>
      <point x="465" y="568" type="curve"/>
      <point x="245" y="568"/>
      <point x="233" y="398"/>
      <point x="233" y="398" type="curve"/>
      <point x="186" y="555" type="line"/>
      <point x="90" y="555" type="line"/>
      <point x="90" y="0" type="line"/>
      <point x="255" y="0" type="line"/>
      <point x="255" y="336" type="line"/>
      <point x="255" y="336"/>
      <point x="289" y="458"/>
      <point x="420" y="458" type="curve"/>
      <point x="509" y="458"/>
      <point x="560" y="422"/>
      <point x="560" y="348" type="curve"/>
    </contour>
  </outline>
</glyph>
<glyph name="ucircumflex" format="1">
  <advance width="815"/>
  <unicode hex="00FB"/>
  <outline>
    <contour>
      <point x="337" y="792" type="line"/>
      <point x="151" y="648" type="line"/>
      <point x="248" y="648" type="line"/>
      <point x="412" y="710" type="line"/>
      <point x="576" y="648" type="line"/>
      <point x="673" y="648" type="line"/>
      <point x="487" y="792" type="line"/>
    </contour>
    <contour>
      <point x="254" y="555" type="line"/>
      <point x="90" y="555" type="line"/>
      <point x="90" y="215" type="line"/>
      <point x="90" y="74"/>
      <point x="166" y="-13"/>
      <point x="350" y="-13" type="curve"/>
      <point x="570" y="-13"/>
      <point x="582" y="157"/>
      <point x="582" y="157" type="curve"/>
      <point x="629" y="0" type="line"/>
      <point x="725" y="0" type="line"/>
      <point x="725" y="555" type="line"/>
      <point x="560" y="555" type="line"/>
      <point x="560" y="219" type="line"/>
      <point x="560" y="219"/>
      <point x="526" y="97"/>
      <point x="395" y="97" type="curve"/>
      <point x="306" y="97"/>
      <point x="254" y="133"/>
      <point x="254" y="207" type="curve"/>
    </contour>
  </outline>
</glyph>
<glyph name="yacute" format="1">
  <advance width="738"/>
  <unicode hex="00FD"/>
  <outline>
    <contour>
      <point x="369" y="792" type="line"/>
      <point x="233" y="648" type="line"/>
      <point x="350" y="648" type="line"/>
      <point x="579" y="792" type="line"/>
    </contour>
    <contour>
      <point x="287" y="15" type="line"/>
      <point x="253" y="-58"/>
      <point x="215" y="-127"/>
      <point x="154" y="-127" type="curve"/>
      <point x="72" y="-127"/>
      <point x="46" y="-47"/>
      <point x="46" y="-47" type="curve"/>
      <point x="14" y="-154" type="line"/>
      <point x="14" y="-154"/>
      <point x="64" y="-237"/>
      <point x="170" y="-237" type="curve" smooth="yes"/>
      <point x="274" y="-237"/>
      <point x="337" y="-188"/>
      <point x="403" y="-62" type="curve" smooth="yes"/>
      <point x="728" y="555" type="line"/>
      <point x="547" y="555" type="line"/>
      <point x="364" y="156" type="line"/>
      <point x="191" y="555" type="line"/>
      <point x="10" y="555" type="line"/>
    </contour>
  </outline>
</glyph>
<glyph name="Aogonek" format="1">
  <advance width="1084"/>
  <unicode hex="0104"/>
  <outline>
    <contour>
      <point x="1050" y="-115" type="line"/>
      <point x="1007" y="-174"/>
      <point x="910" y="-183"/>
      <point x="910" y="-114" type="curve" smooth="yes"/>
      <point x="910" y="-81"/>
      <point x="932" y="-48"/>
      <point x="1053" y="0" type="curve"/>
      <point x="686" y="777" type="line"/>
      <point x="377" y="777" type="line"/>
      <point x="10" y="0" type="line"/>
      <point x="201" y="0" type="line"/>
      <point x="308" y="235" type="line"/>
      <point x="754" y="235" type="line"/>
      <point x="861" y="0" type="line"/>
      <point x="912" y="0" type="line"/>
      <point x="834" y="-23"/>
      <point x="777" y="-74"/>
      <point x="777" y="-156" type="curve" smooth="yes"/>
      <point x="777" y="-301"/>
      <point x="952" y="-326"/>
      <point x="1074" y="-252" type="curve"/>
    </contour>
    <contour>
      <point x="358" y="345" type="line"/>
      <point x="506" y="668" type="line"/>
      <point x="557" y="668" type="line"/>
      <point x="704" y="345" type="line"/>
    </contour>
  </outline>
</glyph>
<glyph name="Cacute" format="1">
  <advance width="1073"/>
  <unicode hex="0106"/>
  <outline>
    <contour>
      <point x="774" y="1019" type="line"/>
      <point x="564" y="1019" type="line"/>
      <point x="428" y="875" type="line"/>
      <point x="545" y="875" type="line"/>
    </contour>
    <contour>
      <point x="1001" y="452" type="line"/>
      <point x="1001" y="452"/>
      <point x="1004" y="791"/>
      <point x="538" y="791" type="curve" smooth="yes"/>
      <point x="247" y="791"/>
      <point x="60" y="623"/>
      <point x="60" y="389" type="curve" smooth="yes"/>
      <point x="60" y="156"/>
      <point x="251" y="-13"/>
      <point x="539" y="-13" type="curve" smooth="yes"/>
      <point x="977" y="-13"/>
      <point x="1023" y="291"/>
      <point x="1023" y="291" type="curve"/>
      <point x="840" y="338" type="line"/>
      <point x="840" y="338"/>
      <point x="844" y="110"/>
      <point x="539" y="110" type="curve" smooth="yes"/>
      <point x="363" y="110"/>
      <point x="245" y="217"/>
      <point x="245" y="389" type="curve" smooth="yes"/>
      <point x="245" y="552"/>
      <point x="345" y="668"/>
      <point x="539" y="668" type="curve" smooth="yes"/>
      <point x="848" y="668"/>
      <point x="818" y="402"/>
      <point x="818" y="402" type="curve"/>
    </contour>
  </outline>
</glyph>
<glyph name="Eogonek" format="1">
  <advance width="835"/>
  <unicode hex="0118"/>
  <outline>
    <contour>
      <point x="771" y="-115" type="line"/>
      <point x="728" y="-174"/>
      <point x="631" y="-183"/>
      <point x="631" y="-114" type="curve" smooth="yes"/>
      <point x="631" y="-81"/>
      <point x="653" y="-48"/>
      <point x="774" y="0" type="curve"/>
      <point x="775" y="0" type="line"/>
      <point x="775" y="110" type="line"/>
      <point x="268" y="110" type="line"/>
      <point x="268" y="333" type="line"/>
      <point x="716" y="333" type="line"/>
      <point x="716" y="442" type="line"/>
      <point x="268" y="442" type="line"/>
      <point x="268" y="668" type="line"/>
      <point x="745" y="668" type="line"/>
      <point x="745" y="777" type="line"/>
      <point x="90" y="777" type="line"/>
      <point x="90" y="0" type="line"/>
      <point x="633" y="0" type="line"/>
      <point x="555" y="-23"/>
      <point x="498" y="-74"/>
      <point x="498" y="-156" type="curve" smooth="yes"/>
      <point x="498" y="-301"/>
      <point x="673" y="-326"/>
      <point x="795" y="-252" type="curve"/>
    </contour>
  </outline>
</glyph>
<glyph name="Lslash" format="1">
  <advance width="785"/>
  <unicode hex="0141"/>
  <outline>
    <contour>
      <point x="310" y="110" type="line"/>
      <point x="310" y="337" type="line"/>
      <point x="654" y="560" type="line"/>
      <point x="595" y="663" type="line"/>
      <point x="310" y="463" type="line"/>
      <point x="310" y="777" type="line"/>
      <point x="132" y="777" type="line"/>
      <point x="132" y="338" type="line"/>
      <point x="20" y="260" type="line"/>
      <point x="60" y="175" type="line"/>
      <point x="132" y="222" type="line"/>
      <point x="132" y="0" type="line"/>
      <point x="775" y="0" type="line"/>
      <point x="775" y="110" type="line"/>
    </contour>
  </outline>
</glyph>
<glyph name="OE" format="1">
  <advance width="1415"/>
  <unicode hex="0152"/>
  <outline>
    <contour>
      <point x="60" y="389" type="curve" smooth="yes"/>
      <point x="60" y="155"/>
      <point x="255" y="-13"/>
      <point x="555" y="-13" type="curve" smooth="yes"/>
      <point x="603" y="-13"/>
      <point x="649" y="-8"/>
      <point x="692" y="0" type="curve"/>
      <point x="1375" y="0" type="line"/>
      <point x="1375" y="110" type="line"/>
      <point x="926" y="110" type="line"/>
      <point x="992" y="168"/>
      <point x="1033" y="245"/>
      <point x="1046" y="333" type="curve"/>
      <point x="1316" y="333" type="line"/>
      <point x="1316" y="442" type="line"/>
      <point x="1046" y="442" type="line"/>
      <point x="1034" y="531"/>
      <point x="992" y="609"/>
      <point x="926" y="668" type="curve"/>
      <point x="1345" y="668" type="line"/>
      <point x="1345" y="777" type="line"/>
      <point x="702" y="776" type="line"/>
      <point x="657" y="785"/>
      <point x="607" y="791"/>
      <point x="555" y="791" type="curve" smooth="yes"/>
      <point x="255" y="791"/>
      <point x="60" y="623"/>
    </contour>
    <contour>
      <point x="245" y="389" type="curve" smooth="yes"/>
      <point x="245" y="542"/>
      <point x="339" y="668"/>
      <point x="555" y="668" type="curve" smooth="yes"/>
      <point x="745" y="668"/>
      <point x="841" y="570"/>
      <point x="861" y="442" type="curve"/>
      <point x="668" y="442" type="line"/>
      <point x="668" y="333" type="line"/>
      <point x="860" y="333" type="line"/>
      <point x="839" y="206"/>
      <point x="744" y="110"/>
      <point x="555" y="110" type="curve" smooth="yes"/>
      <point x="339" y="110"/>
      <point x="245" y="236"/>
    </contour>
  </outline>
</glyph>
<glyph name="oe" format="1">
  <advance width="1302"/>
  <unicode hex="0153"/>
  <outline>
    <contour>
      <point x="60" y="278" type="curve" smooth="yes"/>
      <point x="60" y="115"/>
      <point x="188" y="-13"/>
      <point x="403" y="-13" type="curve" smooth="yes"/>
      <point x="521" y="-13"/>
      <point x="608" y="25"/>
      <point x="661" y="86" type="curve"/>
      <point x="719" y="21"/>
      <point x="808" y="-13"/>
      <point x="912" y="-13" type="curve" smooth="yes"/>
      <point x="1200" y="-13"/>
      <point x="1242" y="184"/>
      <point x="1242" y="184" type="curve"/>
      <point x="1082" y="225" type="line"/>
      <point x="1082" y="225"/>
      <point x="1081" y="97"/>
      <point x="929" y="97" type="curve" smooth="yes"/>
      <point x="794" y="97"/>
      <point x="742" y="182"/>
      <point x="741" y="268" type="curve"/>
      <point x="1227" y="258" type="line"/>
      <point x="1242" y="337"/>
      <point x="1225" y="568"/>
      <point x="912" y="568" type="curve" smooth="yes"/>
      <point x="798" y="568"/>
      <point x="714" y="530"/>
      <point x="661" y="469" type="curve"/>
      <point x="607" y="530"/>
      <point x="521" y="568"/>
      <point x="403" y="568" type="curve" smooth="yes"/>
      <point x="188" y="568"/>
      <point x="60" y="440"/>
    </contour>
    <contour>
      <point x="751" y="346" type="line"/>
      <point x="751" y="346"/>
      <point x="771" y="463"/>
      <point x="909" y="463" type="curve" smooth="yes"/>
      <point x="1042" y="463"/>
      <point x="1056" y="356"/>
      <point x="1056" y="356" type="curve"/>
    </contour>
    <contour>
      <point x="233" y="278" type="curve" smooth="yes"/>
      <point x="233" y="369"/>
      <point x="274" y="458"/>
      <point x="403" y="458" type="curve" smooth="yes"/>
      <point x="531" y="458"/>
      <point x="575" y="369"/>
      <point x="575" y="278" type="curve" smooth="yes"/>
      <point x="575" y="187"/>
      <point x="531" y="97"/>
      <point x="403" y="97" type="curve" smooth="yes"/>
      <point x="274" y="97"/>
      <point x="233" y="187"/>
    </contour>
  </outline>
</glyph>
<glyph name="Sacute" format="1">
  <advance width="871"/>
  <unicode hex="015A"/>
  <outline>
    <contour>
      <point x="734" y="1019" type="line"/>
      <point x="524" y="1019" type="line"/>
      <point x="388" y="875" type="line"/>
      <point x="505" y="875" type="line"/>
    </contour>
    <contour>
      <point x="379" y="487" type="line" smooth="yes"/>
      <point x="298" y="503"/>
      <point x="242" y="528"/>
      <point x="242" y="578" type="curve" smooth="yes"/>
      <point x="242" y="629"/>
      <point x="304" y="668"/>
      <point x="410" y="668" type="curve" smooth="yes"/>
      <point x="633" y="668"/>
      <point x="627" y="512"/>
      <point x="627" y="512" type="curve"/>
      <point x="810" y="562" type="line"/>
      <point x="810" y="562"/>
      <point x="793" y="791"/>
      <point x="417" y="791" type="curve" smooth="yes"/>
      <point x="174" y="791"/>
      <point x="58" y="680"/>
      <point x="58" y="559" type="curve" smooth="yes"/>
      <point x="58" y="461"/>
      <point x="142" y="384"/>
      <point x="292" y="352" type="curve" smooth="yes"/>
      <point x="490" y="310" type="line" smooth="yes"/>
      <point x="597" y="287"/>
      <point x="658" y="274"/>
      <point x="658" y="203" type="curve" smooth="yes"/>
      <point x="658" y="144"/>
      <point x="586" y="110"/>
      <point x="468" y="110" type="curve" smooth="yes"/>
      <point x="190" y="110"/>
      <point x="213" y="300"/>
      <point x="213" y="300" type="curve"/>
      <point x="30" y="253" type="line"/>
      <point x="36" y="141"/>
      <point x="139" y="-13"/>
      <point x="471" y="-13" type="curve" smooth="yes"/>
      <point x="680" y="-13"/>
      <point x="841" y="66"/>
      <point x="841" y="217" type="curve" smooth="yes"/>
      <point x="841" y="321"/>
      <point x="783" y="406"/>
      <point x="593" y="444" type="curve" smooth="yes"/>
    </contour>
  </outline>
</glyph>
<glyph name="zacute" format="1">
  <advance width="705"/>
  <unicode hex="017A"/>
  <outline>
    <contour>
      <point x="619" y="777" type="line"/>
      <point x="409" y="777" type="line"/>
      <point x="273" y="633" type="line"/>
      <point x="390" y="633" type="line"/>
    </contour>
    <contour>
      <point x="60" y="107" type="line"/>
      <point x="60" y="0" type="line"/>
      <point x="645" y="0" type="line"/>
      <point x="645" y="97" type="line"/>
      <point x="268" y="97" type="line"/>
      <point x="645" y="448" type="line"/>
      <point x="645" y="555" type="line"/>
      <point x="60" y="555" type="line"/>
      <point x="60" y="458" type="line"/>
      <point x="443" y="458" type="line"/>
    </contour>
  </outline>
</glyph>
<glyph name="Zdotaccent" format="1">
  <advance width="818"/>
  <unicode hex="017B"/>
  <outline>
    <contour>
      <point x="373" y="1019" type="line"/>
      <point x="373" y="869" type="line"/>
      <point x="511" y="869" type="line"/>
      <point x="511" y="1019" type="line"/>
    </contour>
    <contour>
      <point x="798" y="0" type="line"/>
      <point x="798" y="110" type="line"/>
      <point x="255" y="110" type="line"/>
      <point x="798" y="658" type="line"/>
      <point x="798" y="777" type="line"/>
      <point x="20" y="777" type="line"/>
      <point x="20" y="668" type="line"/>
      <point x="563" y="668" type="line"/>
      <point x="20" y="120" type="line"/>
      <point x="20" y="0" type="line"/>
    </contour>
  </outline>
</glyph>
<glyph name="zdotaccent" format="1">
  <advance width="705"/>
  <unicode hex="017C"/>
  <outline>
    <contour>
      <point x="291" y="812" type="line"/>
      <point x="291" y="662" type="line"/>
      <point x="429" y="662" type="line"/>
      <point x="429" y="812" type="line"/>
    </contour>
    <contour>
      <point x="60" y="107" type="line"/>
      <point x="60" y="0" type="line"/>
      <point x="645" y="0" type="line"/>
      <point x="645" y="97" type="line"/>
      <point x="268" y="97" type="line"/>
      <point x="645" y="448" type="line"/>
      <point x="645" y="555" type="line"/>
      <point x="60" y="555" type="line"/>
      <point x="60" y="458" type="line"/>
      <point x="443" y="458" type="line"/>
    </contour>
  </outline>
</glyph>
<glyph name="tilde" format="1">
  <advance width="1204"/>
  <unicode hex="02DC"/>
  <outline>
    <contour>
      <point x="692" y="725" type="curve"/>
      <point x="625" y="725"/>
      <point x="600" y="791"/>
      <point x="515" y="791" type="curve"/>
      <point x="422" y="791"/>
      <point x="399" y="683"/>
      <point x="399" y="683" type="curve"/>
      <point x="439" y="627" type="line"/>
      <point x="439" y="627"/>
      <point x="453" y="693"/>
      <point x="511" y="693" type="curve"/>
      <point x="581" y="693"/>
      <point x="602" y="627"/>
      <point x="689" y="627" type="curve" smooth="yes"/>
      <point x="782" y="627"/>
      <point x="805" y="735"/>
      <point x="805" y="735" type="curve"/>
      <point x="765" y="791" type="line"/>
      <point x="765" y="791"/>
      <point x="752" y="725"/>
    </contour>
    <contour>
      <point x="601" y="613" type="move" name="_top"/>
    </contour>
  </outline>
</glyph>
<glyph name="anoteleia" format="1">
  <advance width="298"/>
  <unicode hex="0387"/>
  <outline>
    <contour>
      <point x="60" y="405" type="line"/>
      <point x="238" y="405" type="line"/>
      <point x="238" y="555" type="line"/>
      <point x="60" y="555" type="line"/>
    </contour>
  </outline>
</glyph>
<glyph name="Alpha" format="1">
  <advance width="1063"/>
  <unicode hex="0391"/>
  <outline>
    <contour>
      <point x="861" y="0" type="line"/>
      <point x="1053" y="0" type="line"/>
      <point x="686" y="777" type="line"/>
      <point x="377" y="777" type="line"/>
      <point x="10" y="0" type="line"/>
      <point x="201" y="0" type="line"/>
      <point x="308" y="235" type="line"/>
      <point x="754" y="235" type="line"/>
    </contour>
    <contour>
      <point x="506" y="668" type="line"/>
      <point x="557" y="668" type="line"/>
      <point x="704" y="345" type="line"/>
      <point x="358" y="345" type="line"/>
    </contour>
  </outline>
</glyph>
<glyph name="Zeta" format="1">
  <advance width="818"/>
  <unicode hex="0396"/>
  <outline>
    <contour>
      <point x="798" y="110" type="line"/>
      <point x="235" y="110" type="line"/>
      <point x="798" y="658" type="line"/>
      <point x="798" y="777" type="line"/>
      <point x="20" y="777" type="line"/>
      <point x="20" y="668" type="line"/>
      <point x="583" y="668" type="line"/>
      <point x="20" y="120" type="line"/>
      <point x="20" y="0" type="line"/>
      <point x="798" y="0" type="line"/>
    </contour>
  </outline>
</glyph>
<glyph name="Kappa" format="1">
  <advance width="912"/>
  <unicode hex="039A"/>
  <outline>
    <contour>
      <point x="730" y="0" type="line"/>
      <point x="952" y="0" type="line"/>
      <point x="514" y="442" type="line"/>
      <point x="922" y="777" type="line"/>
      <point x="700" y="777" type="line"/>
      <point x="268" y="411" type="line"/>
      <point x="268" y="777" type="line"/>
      <point x="90" y="777" type="line"/>
      <point x="90" y="0" type="line"/>
      <point x="268" y="0" type="line"/>
      <point x="268" y="238" type="line"/>
      <point x="399" y="347" type="line"/>
    </contour>
  </outline>
</glyph>
<glyph name="Kappa" format="1">
  <advance width="912"/>
  <unicode hex="039A"/>
  <outline>
    <contour>
      <point x="730" y="0" type="line"/>
      <point x="952" y="0" type="line"/>
      <point x="514" y="442" type="line"/>
      <point x="922" y="777" type="line"/>
      <point x="700" y="777" type="line"/>
      <point x="268" y="411" type="line"/>
      <point x="268" y="777" type="line"/>
      <point x="90" y="777" type="line"/>
      <point x="90" y="0" type="line"/>
      <point x="268" y="0" type="line"/>
      <point x="268" y="238" type="line"/>
      <point x="399" y="347" type="line"/>
    </contour>
  </outline>
</glyph>
<glyph name="Rho" format="1">
  <advance width="862"/>
  <unicode hex="03A1"/>
  <outline>
    <contour>
      <point x="90" y="777" type="line"/>
      <point x="90" y="0" type="line"/>
      <point x="268" y="0" type="line"/>
      <point x="268" y="333" type="line"/>
      <point x="456" y="333" type="line" smooth="yes"/>
      <point x="722" y="333"/>
      <point x="842" y="407"/>
      <point x="842" y="555" type="curve" smooth="yes"/>
      <point x="842" y="703"/>
      <point x="722" y="777"/>
      <point x="456" y="777" type="curve" smooth="yes"/>
    </contour>
    <contour>
      <point x="268" y="442" type="line"/>
      <point x="268" y="668" type="line"/>
      <point x="466" y="668" type="line" smooth="yes"/>
      <point x="580" y="668"/>
      <point x="657" y="635"/>
      <point x="657" y="555" type="curve" smooth="yes"/>
      <point x="657" y="475"/>
      <point x="580" y="442"/>
      <point x="466" y="442" type="curve" smooth="yes"/>
    </contour>
  </outline>
</glyph>
<glyph name="Sigma" format="1">
  <advance width="878"/>
  <unicode hex="03A3"/>
  <outline>
    <contour>
      <point x="818" y="777" type="line"/>
      <point x="90" y="777" type="line"/>
      <point x="90" y="633" type="line"/>
      <point x="453" y="385" type="line"/>
      <point x="90" y="140" type="line"/>
      <point x="90" y="0" type="line"/>
      <point x="818" y="0" type="line"/>
      <point x="818" y="110" type="line"/>
      <point x="285" y="110" type="line"/>
      <point x="635" y="342" type="line"/>
      <point x="635" y="435" type="line"/>
      <point x="285" y="667" type="line"/>
      <point x="818" y="667" type="line"/>
    </contour>
  </outline>
</glyph>
<glyph name="Upsilon" format="1">
  <advance width="982"/>
  <unicode hex="03A5"/>
  <outline>
    <contour>
      <point x="972" y="777" type="line"/>
      <point x="755" y="777" type="line"/>
      <point x="491" y="485" type="line"/>
      <point x="227" y="777" type="line"/>
      <point x="10" y="777" type="line"/>
      <point x="402" y="365" type="line"/>
      <point x="402" y="0" type="line"/>
      <point x="580" y="0" type="line"/>
      <point x="580" y="365" type="line"/>
    </contour>
  </outline>
</glyph>
<glyph name="alpha" format="1">
  <advance width="857"/>
  <unicode hex="03B1"/>
  <outline>
    <contour>
      <point x="671" y="244" type="curve"/>
      <point x="771" y="555" type="line"/>
      <point x="611" y="555" type="line"/>
      <point x="563" y="357" type="line"/>
      <point x="545" y="473"/>
      <point x="470" y="569"/>
      <point x="335" y="569" type="curve" smooth="yes"/>
      <point x="169" y="569"/>
      <point x="60" y="443"/>
      <point x="60" y="275" type="curve" smooth="yes"/>
      <point x="60" y="81"/>
      <point x="180" y="-13"/>
      <point x="308" y="-13" type="curve" smooth="yes"/>
      <point x="433" y="-13"/>
      <point x="544" y="72"/>
      <point x="599" y="244" type="curve"/>
      <point x="603" y="244" type="line"/>
      <point x="591" y="208"/>
      <point x="585" y="163"/>
      <point x="585" y="122" type="curve" smooth="yes"/>
      <point x="585" y="49"/>
      <point x="615" y="-14"/>
      <point x="707" y="-14" type="curve" smooth="yes"/>
      <point x="758" y="-14"/>
      <point x="805" y="13"/>
      <point x="817" y="36" type="curve"/>
      <point x="793" y="174" type="line"/>
      <point x="793" y="174"/>
      <point x="761" y="124"/>
      <point x="712" y="124" type="curve" smooth="yes"/>
      <point x="675" y="124"/>
      <point x="661" y="152"/>
      <point x="661" y="187" type="curve" smooth="yes"/>
      <point x="661" y="205"/>
      <point x="665" y="225"/>
    </contour>
    <contour>
      <point x="233" y="274" type="curve" smooth="yes"/>
      <point x="233" y="386"/>
      <point x="287" y="480"/>
      <point x="379" y="480" type="curve" smooth="yes"/>
      <point x="494" y="480"/>
      <point x="539" y="339"/>
      <point x="525" y="223" type="curve"/>
      <point x="487" y="130"/>
      <point x="434" y="97"/>
      <point x="369" y="97" type="curve" smooth="yes"/>
      <point x="290" y="97"/>
      <point x="233" y="175"/>
    </contour>
  </outline>
</glyph>
<glyph name="gamma" format="1">
  <advance width="683"/>
  <unicode hex="03B3"/>
  <outline>
    <contour>
      <point x="243" y="-223" type="line"/>
      <point x="408" y="-223" type="line"/>
      <point x="408" y="14" type="line"/>
      <point x="518" y="142"/>
      <point x="613" y="302"/>
      <point x="673" y="555" type="curve"/>
      <point x="507" y="555" type="line"/>
      <point x="482" y="400"/>
      <point x="417" y="234"/>
      <point x="344" y="136" type="curve"/>
      <point x="191" y="555" type="line"/>
      <point x="10" y="555" type="line"/>
      <point x="243" y="25" type="line"/>
    </contour>
  </outline>
</glyph>
<glyph name="epsilon" format="1">
  <advance width="728"/>
  <unicode hex="03B5"/>
  <outline>
    <contour>
      <point x="527" y="227" type="line"/>
      <point x="527" y="227"/>
      <point x="527" y="95"/>
      <point x="378" y="95" type="curve" smooth="yes"/>
      <point x="287" y="95"/>
      <point x="214" y="121"/>
      <point x="214" y="178" type="curve" smooth="yes"/>
      <point x="214" y="218"/>
      <point x="255" y="244"/>
      <point x="340" y="244" type="curve" smooth="yes"/>
      <point x="447" y="244" type="line"/>
      <point x="447" y="323" type="line"/>
      <point x="340" y="323" type="line" smooth="yes"/>
      <point x="258" y="323"/>
      <point x="226" y="357"/>
      <point x="226" y="387" type="curve" smooth="yes"/>
      <point x="226" y="437"/>
      <point x="293" y="460"/>
      <point x="358" y="460" type="curve" smooth="yes"/>
      <point x="489" y="460"/>
      <point x="516" y="383"/>
      <point x="508" y="314" type="curve"/>
      <point x="667" y="354" type="line"/>
      <point x="669" y="449"/>
      <point x="585" y="569"/>
      <point x="358" y="569" type="curve" smooth="yes"/>
      <point x="209" y="569"/>
      <point x="76" y="498"/>
      <point x="76" y="409" type="curve" smooth="yes"/>
      <point x="76" y="333"/>
      <point x="147" y="294"/>
      <point x="265" y="291" type="curve"/>
      <point x="140" y="282"/>
      <point x="60" y="228"/>
      <point x="60" y="151" type="curve" smooth="yes"/>
      <point x="60" y="63"/>
      <point x="163" y="-14"/>
      <point x="363" y="-14" type="curve" smooth="yes"/>
      <point x="636" y="-14"/>
      <point x="688" y="184"/>
      <point x="688" y="184" type="curve"/>
    </contour>
  </outline>
</glyph>
<glyph name="zeta" format="1">
  <advance width="663"/>
  <unicode hex="03B6"/>
  <outline>
    <contour>
      <point x="282" y="339" type="curve" smooth="yes"/>
      <point x="282" y="473"/>
      <point x="387" y="574"/>
      <point x="623" y="665" type="curve"/>
      <point x="613" y="777" type="line"/>
      <point x="90" y="777" type="line"/>
      <point x="90" y="667" type="line"/>
      <point x="531" y="687" type="line"/>
      <point x="339" y="630"/>
      <point x="110" y="515"/>
      <point x="110" y="318" type="curve" smooth="yes"/>
      <point x="110" y="37"/>
      <point x="451" y="62"/>
      <point x="451" y="-57" type="curve" smooth="yes"/>
      <point x="451" y="-95"/>
      <point x="428" y="-123"/>
      <point x="363" y="-123" type="curve" smooth="yes"/>
      <point x="288" y="-123"/>
      <point x="286" y="-42"/>
      <point x="286" y="-42" type="curve"/>
      <point x="152" y="-98" type="line"/>
      <point x="152" y="-98"/>
      <point x="181" y="-237"/>
      <point x="372" y="-237" type="curve" smooth="yes"/>
      <point x="499" y="-237"/>
      <point x="614" y="-155"/>
      <point x="614" y="-48" type="curve" smooth="yes"/>
      <point x="614" y="180"/>
      <point x="282" y="87"/>
    </contour>
  </outline>
</glyph>
<glyph name="eta" format="1">
  <advance width="815"/>
  <unicode hex="03B7"/>
  <outline>
    <contour>
      <point x="560" y="-223" type="line"/>
      <point x="725" y="-223" type="line"/>
      <point x="725" y="340" type="line"/>
      <point x="725" y="481"/>
      <point x="649" y="568"/>
      <point x="465" y="568" type="curve"/>
      <point x="245" y="568"/>
      <point x="233" y="398"/>
      <point x="233" y="398" type="curve"/>
      <point x="186" y="555" type="line"/>
      <point x="90" y="555" type="line"/>
      <point x="90" y="0" type="line"/>
      <point x="255" y="0" type="line"/>
      <point x="255" y="336" type="line"/>
      <point x="255" y="336"/>
      <point x="289" y="458"/>
      <point x="420" y="458" type="curve"/>
      <point x="509" y="458"/>
      <point x="560" y="422"/>
      <point x="560" y="348" type="curve"/>
    </contour>
  </outline>
</glyph>
<glyph name="nu" format="1">
  <advance width="683"/>
  <unicode hex="03BD"/>
  <outline>
    <contour>
      <point x="507" y="555" type="line"/>
      <point x="482" y="400"/>
      <point x="417" y="234"/>
      <point x="344" y="136" type="curve"/>
      <point x="191" y="555" type="line"/>
      <point x="10" y="555" type="line"/>
      <point x="254" y="0" type="line"/>
      <point x="392" y="0" type="line"/>
      <point x="507" y="131"/>
      <point x="611" y="293"/>
      <point x="673" y="555" type="curve"/>
    </contour>
  </outline>
</glyph>
<glyph name="pi" format="1">
  <advance width="881"/>
  <unicode hex="03C0"/>
  <outline>
    <contour>
      <point x="131" y="0" type="line"/>
      <point x="298" y="0" type="line"/>
      <point x="322" y="458" type="line"/>
      <point x="516" y="458" type="line"/>
      <point x="516" y="194" type="line" smooth="yes"/>
      <point x="516" y="51"/>
      <point x="578" y="-13"/>
      <point x="702" y="-13" type="curve" smooth="yes"/>
      <point x="815" y="-13"/>
      <point x="861" y="69"/>
      <point x="861" y="69" type="curve"/>
      <point x="829" y="167" type="line"/>
      <point x="829" y="167"/>
      <point x="794" y="97"/>
      <point x="746" y="97" type="curve" smooth="yes"/>
      <point x="700" y="97"/>
      <point x="679" y="130"/>
      <point x="679" y="206" type="curve" smooth="yes"/>
      <point x="679" y="458" type="line"/>
      <point x="812" y="458" type="line"/>
      <point x="812" y="555" type="line"/>
      <point x="40" y="555" type="line"/>
      <point x="40" y="458" type="line"/>
      <point x="181" y="458" type="line"/>
    </contour>
  </outline>
</glyph>
<glyph name="sigma1" format="1">
  <advance width="768"/>
  <unicode hex="03C2"/>
  <outline>
    <contour>
      <point x="60" y="298" type="curve" smooth="yes"/>
      <point x="60" y="-3"/>
      <point x="481" y="62"/>
      <point x="481" y="-57" type="curve" smooth="yes"/>
      <point x="481" y="-95"/>
      <point x="458" y="-123"/>
      <point x="393" y="-123" type="curve" smooth="yes"/>
      <point x="318" y="-123"/>
      <point x="316" y="-42"/>
      <point x="316" y="-42" type="curve"/>
      <point x="182" y="-98" type="line"/>
      <point x="182" y="-98"/>
      <point x="211" y="-237"/>
      <point x="402" y="-237" type="curve" smooth="yes"/>
      <point x="529" y="-237"/>
      <point x="649" y="-165"/>
      <point x="649" y="-58" type="curve" smooth="yes"/>
      <point x="649" y="181"/>
      <point x="232" y="76"/>
      <point x="232" y="308" type="curve" smooth="yes"/>
      <point x="232" y="387"/>
      <point x="285" y="458"/>
      <point x="400" y="458" type="curve" smooth="yes"/>
      <point x="577" y="458"/>
      <point x="547" y="263"/>
      <point x="547" y="263" type="curve"/>
      <point x="707" y="304" type="line"/>
      <point x="707" y="304"/>
      <point x="732" y="568"/>
      <point x="398" y="568" type="curve" smooth="yes"/>
      <point x="190" y="568"/>
      <point x="60" y="463"/>
    </contour>
  </outline>
</glyph>
<glyph name="phi" format="1">
  <advance width="997"/>
  <unicode hex="03C6"/>
  <outline>
    <contour>
      <point x="233" y="308" type="curve" smooth="yes"/>
      <point x="233" y="406"/>
      <point x="288" y="459"/>
      <point x="357" y="459" type="curve" smooth="yes"/>
      <point x="369" y="459"/>
      <point x="382" y="457"/>
      <point x="395" y="453" type="curve"/>
      <point x="365" y="561" type="line"/>
      <point x="348" y="565"/>
      <point x="331" y="567"/>
      <point x="314" y="567" type="curve" smooth="yes"/>
      <point x="184" y="567"/>
      <point x="60" y="459"/>
      <point x="60" y="318" type="curve" smooth="yes"/>
      <point x="60" y="127"/>
      <point x="218" y="16"/>
      <point x="415" y="-8" type="curve"/>
      <point x="415" y="-223" type="line"/>
      <point x="580" y="-223" type="line"/>
      <point x="580" y="-8" type="line"/>
      <point x="783" y="16"/>
      <point x="937" y="134"/>
      <point x="937" y="318" type="curve" smooth="yes"/>
      <point x="937" y="472"/>
      <point x="826" y="568"/>
      <point x="683" y="568" type="curve" smooth="yes"/>
      <point x="545" y="568"/>
      <point x="415" y="486"/>
      <point x="415" y="298" type="curve" smooth="yes"/>
      <point x="415" y="92" type="line"/>
      <point x="296" y="122"/>
      <point x="233" y="216"/>
    </contour>
    <contour>
      <point x="580" y="328" type="line" smooth="yes"/>
      <point x="580" y="408"/>
      <point x="606" y="468"/>
      <point x="676" y="468" type="curve" smooth="yes"/>
      <point x="754" y="468"/>
      <point x="779" y="388"/>
      <point x="779" y="328" type="curve" smooth="yes"/>
      <point x="779" y="211"/>
      <point x="718" y="115"/>
      <point x="580" y="89" type="curve"/>
    </contour>
  </outline>
</glyph>
<glyph name="iotadieresis" format="1">
  <advance width="345"/>
  <unicode hex="03CA"/>
  <outline>
    <contour>
      <point x="-16" y="642" type="line"/>
      <point x="122" y="642" type="line"/>
      <point x="122" y="792" type="line"/>
      <point x="-16" y="792" type="line"/>
    </contour>
    <contour>
      <point x="224" y="642" type="line"/>
      <point x="362" y="642" type="line"/>
      <point x="362" y="792" type="line"/>
      <point x="224" y="792" type="line"/>
    </contour>
    <contour>
      <point x="90" y="0" type="line"/>
      <point x="255" y="0" type="line"/>
      <point x="255" y="555" type="line"/>
      <point x="90" y="555" type="line"/>
    </contour>
  </outline>
</glyph>
<glyph name="bullet" format="1">
  <advance width="646"/>
  <unicode hex="2022"/>
  <outline>
    <contour>
      <point x="604" y="434" type="curve"/>
      <point x="413" y="623" type="line"/>
      <point x="386" y="633"/>
      <point x="355" y="639"/>
      <point x="327" y="639" type="curve"/>
      <point x="617" y="348" type="line"/>
      <point x="616" y="379"/>
      <point x="613" y="406"/>
    </contour>
    <contour>
      <point x="616" y="332" type="curve"/>
      <point x="312" y="636" type="line"/>
      <point x="295" y="637"/>
      <point x="276" y="636"/>
      <point x="257" y="632" type="curve"/>
      <point x="610" y="277" type="line"/>
      <point x="616" y="298"/>
      <point x="616" y="316"/>
    </contour>
    <contour>
      <point x="604" y="260" type="curve"/>
      <point x="238" y="626" type="line"/>
      <point x="221" y="623"/>
      <point x="211" y="616"/>
      <point x="197" y="610" type="curve"/>
      <point x="588" y="218" type="line"/>
      <point x="595" y="231"/>
      <point x="598" y="246"/>
    </contour>
    <contour>
      <point x="530" y="552" type="curve" smooth="yes"/>
      <point x="499" y="584"/>
      <point x="465" y="607"/>
      <point x="425" y="621" type="curve"/>
      <point x="601" y="445" type="line"/>
      <point x="588" y="484"/>
      <point x="562" y="520"/>
    </contour>
    <contour>
      <point x="578" y="199" type="curve"/>
      <point x="176" y="601" type="line"/>
      <point x="147" y="579" type="line"/>
      <point x="556" y="169" type="line"/>
      <point x="566" y="179"/>
      <point x="574" y="188"/>
    </contour>
    <contour>
      <point x="532" y="137" type="line"/>
      <point x="543" y="147" type="line"/>
      <point x="127" y="564" type="line"/>
      <point x="117" y="552" type="line"/>
      <point x="105" y="542" type="line"/>
      <point x="522" y="126" type="line"/>
    </contour>
    <contour>
      <point x="494" y="107" type="curve"/>
      <point x="85" y="517" type="line"/>
      <point x="72" y="499" type="line"/>
      <point x="477" y="95" type="line"/>
      <point x="484" y="98"/>
      <point x="490" y="103"/>
    </contour>
    <contour>
      <point x="45" y="442" type="curve"/>
      <point x="421" y="68" type="line"/>
      <point x="439" y="77" type="line"/>
      <point x="55" y="462" type="line"/>
      <point x="51" y="457"/>
      <point x="48" y="448"/>
    </contour>
    <contour>
      <point x="373" y="55" type="line"/>
      <point x="33" y="396" type="line"/>
      <point x="32" y="379" type="line"/>
      <point x="358" y="51" type="line"/>
    </contour>
    <contour>
      <point x="33" y="298" type="line"/>
      <point x="277" y="53" type="line"/>
      <point x="289" y="51" type="line"/>
      <point x="30" y="309" type="line"/>
    </contour>
    <contour>
      <point x="114" y="136" type="curve"/>
      <point x="133" y="120" type="line"/>
      <point x="93" y="159" type="line"/>
      <point x="100" y="149"/>
      <point x="105" y="143"/>
    </contour>
  </outline>
</glyph>
<glyph name="guilsinglleft" format="1">
  <advance width="359"/>
  <unicode hex="2039"/>
  <outline>
    <contour>
      <point x="30" y="277" type="line"/>
      <point x="231" y="58" type="line"/>
      <point x="359" y="58" type="line"/>
      <point x="208" y="277" type="line"/>
      <point x="359" y="496" type="line"/>
      <point x="231" y="496" type="line"/>
    </contour>
  </outline>
</glyph>
<glyph name="guilsinglright" format="1">
  <advance width="359"/>
  <unicode hex="203A"/>
  <outline>
    <contour>
      <point x="128" y="496" type="line"/>
      <point x="0" y="496" type="line"/>
      <point x="151" y="277" type="line"/>
      <point x="0" y="58" type="line"/>
      <point x="128" y="58" type="line"/>
      <point x="329" y="277" type="line"/>
    </contour>
  </outline>
</glyph>
<glyph name="fraction" format="1">
  <advance width="459"/>
  <unicode hex="2044"/>
  <outline>
    <contour>
      <point x="411" y="703" type="line" name="hr00"/>
      <point x="0" y="-61" type="line"/>
      <point x="46" y="-84" type="line"/>
      <point x="459" y="679" type="line"/>
    </contour>
  </outline>
</glyph>
<glyph name="Omega" format="1">
  <advance width="1110"/>
  <unicode hex="2126"/>
  <outline>
    <contour>
      <point x="245" y="409" type="curve" smooth="yes"/>
      <point x="245" y="542"/>
      <point x="339" y="668"/>
      <point x="555" y="668" type="curve" smooth="yes"/>
      <point x="771" y="668"/>
      <point x="865" y="542"/>
      <point x="865" y="409" type="curve" smooth="yes"/>
      <point x="865" y="278"/>
      <point x="796" y="148"/>
      <point x="620" y="109" type="curve"/>
      <point x="620" y="0" type="line"/>
      <point x="1070" y="0" type="line"/>
      <point x="1070" y="109" type="line"/>
      <point x="805" y="109" type="line"/>
      <point x="975" y="179"/>
      <point x="1050" y="296"/>
      <point x="1050" y="419" type="curve" smooth="yes"/>
      <point x="1050" y="623"/>
      <point x="855" y="791"/>
      <point x="555" y="791" type="curve" smooth="yes"/>
      <point x="255" y="791"/>
      <point x="60" y="623"/>
      <point x="60" y="419" type="curve" smooth="yes"/>
      <point x="60" y="296"/>
      <point x="135" y="179"/>
      <point x="305" y="109" type="curve"/>
      <point x="40" y="109" type="line"/>
      <point x="40" y="0" type="line"/>
      <point x="480" y="0" type="line"/>
      <point x="480" y="111" type="line"/>
      <point x="311" y="153"/>
      <point x="245" y="280"/>
    </contour>
  </outline>
</glyph>
<glyph name="Delta" format="1">
  <advance width="1063"/>
  <unicode hex="2206"/>
  <outline>
    <contour>
      <point x="686" y="777" type="line"/>
      <point x="377" y="777" type="line"/>
      <point x="10" y="0" type="line"/>
      <point x="1053" y="0" type="line"/>
    </contour>
    <contour>
      <point x="506" y="668" type="line"/>
      <point x="557" y="668" type="line"/>
      <point x="811" y="110" type="line"/>
      <point x="251" y="110" type="line"/>
    </contour>
  </outline>
</glyph>
<glyph name="f_l" format="1">
  <advance width="748"/>
  <unicode hex="FB02"/>
  <outline>
    <contour>
      <point x="0" y="555" type="line"/>
      <point x="0" y="458" type="line"/>
      <point x="128" y="458" type="line"/>
      <point x="128" y="0" type="line"/>
      <point x="293" y="0" type="line"/>
      <point x="293" y="458" type="line"/>
      <point x="493" y="458" type="line"/>
      <point x="493" y="0" type="line"/>
      <point x="658" y="0" type="line"/>
      <point x="658" y="791" type="line"/>
      <point x="658" y="791"/>
      <point x="574" y="777"/>
      <point x="493" y="777" type="curve"/>
      <point x="493" y="771" type="line"/>
      <point x="467" y="782"/>
      <point x="431" y="791"/>
      <point x="381" y="791" type="curve" smooth="yes"/>
      <point x="201" y="791"/>
      <point x="110" y="705"/>
      <point x="110" y="628" type="curve" smooth="yes"/>
      <point x="110" y="576"/>
      <point x="147" y="556"/>
      <point x="149" y="555" type="curve"/>
    </contour>
    <contour>
      <point x="267" y="594" type="curve" smooth="yes"/>
      <point x="267" y="629"/>
      <point x="287" y="686"/>
      <point x="389" y="686" type="curve" smooth="yes"/>
      <point x="438" y="686"/>
      <point x="470" y="674"/>
      <point x="493" y="655" type="curve"/>
      <point x="493" y="555" type="line"/>
      <point x="283" y="555" type="line"/>
      <point x="283" y="555"/>
      <point x="267" y="569"/>
    </contour>
  </outline>
</glyph>
<glyph name="B.alt" format="1">
  <advance width="1053"/>
  <outline>
    <contour>
      <point x="617" y="110" type="curve" smooth="yes"/>
      <point x="0" y="124" type="line"/>
      <point x="0" y="0" type="line"/>
      <point x="607" y="0" type="line" smooth="yes"/>
      <point x="873" y="0"/>
      <point x="993" y="79"/>
      <point x="993" y="227" type="curve" smooth="yes"/>
      <point x="993" y="375"/>
      <point x="845" y="401"/>
      <point x="831" y="403" type="curve"/>
      <point x="844" y="405"/>
      <point x="973" y="430"/>
      <point x="973" y="560" type="curve" smooth="yes"/>
      <point x="973" y="708"/>
      <point x="853" y="777"/>
      <point x="587" y="777" type="curve" smooth="yes"/>
      <point x="221" y="777" type="line"/>
      <point x="221" y="170" type="line"/>
      <point x="399" y="170" type="line"/>
      <point x="399" y="346" type="line"/>
      <point x="626" y="346" type="line" smooth="yes"/>
      <point x="735" y="346"/>
      <point x="808" y="306"/>
      <point x="808" y="228" type="curve" smooth="yes"/>
      <point x="808" y="148"/>
      <point x="731" y="107"/>
    </contour>
    <contour>
      <point x="597" y="452" type="curve" smooth="yes"/>
      <point x="399" y="452" type="line"/>
      <point x="399" y="668" type="line"/>
      <point x="597" y="668" type="line" smooth="yes"/>
      <point x="711" y="668"/>
      <point x="788" y="640"/>
      <point x="788" y="560" type="curve" smooth="yes"/>
      <point x="788" y="480"/>
      <point x="711" y="452"/>
    </contour>
  </outline>
</glyph>
<glyph name="circumflex.case" format="1">
  <advance width="1204"/>
  <outline>
    <contour>
      <point x="526" y="777" type="line"/>
      <point x="340" y="633" type="line"/>
      <point x="437" y="633" type="line"/>
      <point x="601" y="695" type="line"/>
      <point x="765" y="633" type="line"/>
      <point x="862" y="633" type="line"/>
      <point x="676" y="777" type="line"/>
    </contour>
    <contour>
      <point x="601" y="613" type="move" name="_top"/>
    </contour>
  </outline>
</glyph>
<glyph name="dieresis.case" format="1">
  <advance width="358"/>
  <outline>
    <contour>
      <point x="-10" y="627" type="line"/>
      <point x="128" y="627" type="line"/>
      <point x="128" y="777" type="line"/>
      <point x="-10" y="777" type="line"/>
    </contour>
    <contour>
      <point x="230" y="627" type="line"/>
      <point x="368" y="627" type="line"/>
      <point x="368" y="777" type="line"/>
      <point x="230" y="777" type="line"/>
    </contour>
    <contour>
      <point x="179" y="613" type="move" name="_top"/>
    </contour>
  </outline>
</glyph>
<glyph name="eight.alt" format="1">
  <advance width="1064"/>
  <outline>
    <contour>
      <point x="60" y="311" type="curve" smooth="yes"/>
      <point x="60" y="46"/>
      <point x="267" y="-161"/>
      <point x="532" y="-161" type="curve" smooth="yes"/>
      <point x="797" y="-161"/>
      <point x="1004" y="46"/>
      <point x="1004" y="311" type="curve" smooth="yes"/>
      <point x="1004" y="576"/>
      <point x="797" y="783"/>
      <point x="532" y="783" type="curve" smooth="yes"/>
      <point x="267" y="783"/>
      <point x="60" y="576"/>
    </contour>
    <contour>
      <point x="116" y="310" type="curve" smooth="yes"/>
      <point x="116" y="541"/>
      <point x="301" y="726"/>
      <point x="532" y="726" type="curve" smooth="yes"/>
      <point x="763" y="726"/>
      <point x="948" y="541"/>
      <point x="948" y="310" type="curve" smooth="yes"/>
      <point x="948" y="79"/>
      <point x="763" y="-106"/>
      <point x="532" y="-106" type="curve" smooth="yes"/>
      <point x="301" y="-106"/>
      <point x="116" y="79"/>
    </contour>
    <contour>
      <point x="769" y="444" type="curve" smooth="yes"/>
      <point x="769" y="538"/>
      <point x="663" y="601"/>
      <point x="531" y="601" type="curve" smooth="yes"/>
      <point x="399" y="601"/>
      <point x="293" y="538"/>
      <point x="293" y="444" type="curve" smooth="yes"/>
      <point x="293" y="345"/>
      <point x="410" y="324"/>
      <point x="416" y="323" type="curve"/>
      <point x="403" y="320"/>
      <point x="272" y="294"/>
      <point x="272" y="185" type="curve" smooth="yes"/>
      <point x="272" y="70"/>
      <point x="394" y="21"/>
      <point x="531" y="21" type="curve" smooth="yes"/>
      <point x="667" y="21"/>
      <point x="790" y="70"/>
      <point x="790" y="185" type="curve" smooth="yes"/>
      <point x="790" y="303"/>
      <point x="644" y="313"/>
      <point x="635" y="314" type="curve"/>
      <point x="647" y="316"/>
      <point x="769" y="341"/>
    </contour>
    <contour>
      <point x="392" y="444" type="curve" smooth="yes"/>
      <point x="392" y="489"/>
      <point x="434" y="529"/>
      <point x="531" y="529" type="curve" smooth="yes"/>
      <point x="628" y="529"/>
      <point x="670" y="489"/>
      <point x="670" y="444" type="curve" smooth="yes"/>
      <point x="670" y="387"/>
      <point x="627" y="354"/>
      <point x="531" y="354" type="curve" smooth="yes"/>
      <point x="489" y="354"/>
      <point x="392" y="364"/>
    </contour>
    <contour>
      <point x="692" y="185" type="curve" smooth="yes"/>
      <point x="692" y="117"/>
      <point x="618" y="92"/>
      <point x="531" y="92" type="curve" smooth="yes"/>
      <point x="443" y="92"/>
      <point x="370" y="117"/>
      <point x="370" y="185" type="curve" smooth="yes"/>
      <point x="370" y="263"/>
      <point x="447" y="287"/>
      <point x="531" y="287" type="curve" smooth="yes"/>
      <point x="571" y="287"/>
      <point x="692" y="277"/>
    </contour>
  </outline>
</glyph>
<glyph name="eight.susp_prop" format="1">
  <advance width="880"/>
  <outline>
    <contour>
      <point x="796" y="582" type="curve" smooth="yes"/>
      <point x="796" y="707"/>
      <point x="643" y="791"/>
      <point x="440" y="791" type="curve" smooth="yes"/>
      <point x="238" y="791"/>
      <point x="84" y="697"/>
      <point x="84" y="562" type="curve" smooth="yes"/>
      <point x="84" y="427"/>
      <point x="235" y="393"/>
      <point x="250" y="390" type="curve"/>
      <point x="237" y="388"/>
      <point x="54" y="359"/>
      <point x="54" y="206" type="curve" smooth="yes"/>
      <point x="54" y="71"/>
      <point x="217" y="-13"/>
      <point x="440" y="-13" type="curve" smooth="yes"/>
      <point x="662" y="-13"/>
      <point x="826" y="81"/>
      <point x="826" y="226" type="curve" smooth="yes"/>
      <point x="826" y="375"/>
      <point x="636" y="407"/>
      <point x="629" y="408" type="curve"/>
      <point x="637" y="409"/>
      <point x="796" y="446"/>
    </contour>
    <contour>
      <point x="260" y="562" type="curve" smooth="yes"/>
      <point x="260" y="632"/>
      <point x="330" y="678"/>
      <point x="440" y="678" type="curve" smooth="yes"/>
      <point x="550" y="678"/>
      <point x="621" y="632"/>
      <point x="621" y="562" type="curve" smooth="yes"/>
      <point x="621" y="492"/>
      <point x="550" y="446"/>
      <point x="440" y="446" type="curve" smooth="yes"/>
      <point x="330" y="446"/>
      <point x="260" y="492"/>
    </contour>
    <contour>
      <point x="650" y="226" type="curve" smooth="yes"/>
      <point x="650" y="156"/>
      <point x="580" y="100"/>
      <point x="440" y="100" type="curve" smooth="yes"/>
      <point x="300" y="100"/>
      <point x="229" y="156"/>
      <point x="229" y="226" type="curve" smooth="yes"/>
      <point x="229" y="296"/>
      <point x="300" y="352"/>
      <point x="440" y="352" type="curve" smooth="yes"/>
      <point x="580" y="352"/>
      <point x="650" y="296"/>
    </contour>
  </outline>
</glyph>
<glyph name="five.susp_prop" format="1">
  <advance width="880"/>
  <outline>
    <contour>
      <point x="820" y="40" type="curve" smooth="yes"/>
      <point x="820" y="213"/>
      <point x="671" y="313"/>
      <point x="503" y="313" type="curve" smooth="yes"/>
      <point x="362" y="313"/>
      <point x="290" y="249"/>
      <point x="290" y="249" type="curve"/>
      <point x="335" y="458" type="line"/>
      <point x="783" y="458" type="line"/>
      <point x="783" y="555" type="line"/>
      <point x="197" y="555" type="line"/>
      <point x="114" y="136" type="line"/>
      <point x="287" y="136" type="line"/>
      <point x="287" y="136"/>
      <point x="345" y="200"/>
      <point x="451" y="200" type="curve" smooth="yes"/>
      <point x="583" y="200"/>
      <point x="645" y="122"/>
      <point x="645" y="39" type="curve" smooth="yes"/>
      <point x="645" y="-45"/>
      <point x="583" y="-122"/>
      <point x="451" y="-122" type="curve" smooth="yes"/>
      <point x="223" y="-122"/>
      <point x="242" y="82"/>
      <point x="242" y="82" type="curve"/>
      <point x="56" y="34" type="line"/>
      <point x="56" y="34"/>
      <point x="68" y="-235"/>
      <point x="451" y="-235" type="curve" smooth="yes"/>
      <point x="672" y="-235"/>
      <point x="820" y="-135"/>
    </contour>
  </outline>
</glyph>
<glyph name="four.alt" format="1">
  <advance width="1064"/>
  <outline>
    <contour>
      <point x="60" y="311" type="curve" smooth="yes"/>
      <point x="60" y="46"/>
      <point x="267" y="-161"/>
      <point x="532" y="-161" type="curve" smooth="yes"/>
      <point x="797" y="-161"/>
      <point x="1004" y="46"/>
      <point x="1004" y="311" type="curve" smooth="yes"/>
      <point x="1004" y="576"/>
      <point x="797" y="783"/>
      <point x="532" y="783" type="curve" smooth="yes"/>
      <point x="267" y="783"/>
      <point x="60" y="576"/>
    </contour>
    <contour>
      <point x="116" y="310" type="curve" smooth="yes"/>
      <point x="116" y="541"/>
      <point x="301" y="726"/>
      <point x="532" y="726" type="curve" smooth="yes"/>
      <point x="763" y="726"/>
      <point x="948" y="541"/>
      <point x="948" y="310" type="curve" smooth="yes"/>
      <point x="948" y="79"/>
      <point x="763" y="-106"/>
      <point x="532" y="-106" type="curve" smooth="yes"/>
      <point x="301" y="-106"/>
      <point x="116" y="79"/>
    </contour>
    <contour>
      <point x="229" y="166" type="line"/>
      <point x="563" y="166" type="line"/>
      <point x="563" y="31" type="line"/>
      <point x="656" y="31" type="line"/>
      <point x="656" y="166" type="line"/>
      <point x="769" y="166" type="line"/>
      <point x="769" y="228" type="line"/>
      <point x="656" y="228" type="line"/>
      <point x="656" y="590" type="line"/>
      <point x="533" y="590" type="line"/>
      <point x="229" y="256" type="line"/>
    </contour>
    <contour>
      <point x="563" y="522" type="line"/>
      <point x="563" y="228" type="line"/>
      <point x="302" y="228" type="line"/>
    </contour>
  </outline>
</glyph>
<glyph name="nine.susp_prop" format="1">
  <advance width="880"/>
  <outline>
    <contour>
      <point x="407" y="-126" type="curve" smooth="yes"/>
      <point x="250" y="-126"/>
      <point x="237" y="8"/>
      <point x="237" y="8" type="curve"/>
      <point x="53" y="-42" type="line"/>
      <point x="53" y="-42"/>
      <point x="100" y="-236"/>
      <point x="400" y="-236" type="curve" smooth="yes"/>
      <point x="674" y="-236"/>
      <point x="820" y="-67"/>
      <point x="820" y="166" type="curve" smooth="yes"/>
      <point x="820" y="400"/>
      <point x="684" y="568"/>
      <point x="433" y="568" type="curve" smooth="yes"/>
      <point x="225" y="568"/>
      <point x="67" y="453"/>
      <point x="67" y="287" type="curve" smooth="yes"/>
      <point x="67" y="115"/>
      <point x="211" y="31"/>
      <point x="353" y="31" type="curve" smooth="yes"/>
      <point x="571" y="31"/>
      <point x="645" y="185"/>
      <point x="645" y="185" type="curve"/>
      <point x="651" y="13"/>
      <point x="561" y="-126"/>
    </contour>
    <contour>
      <point x="626" y="306" type="curve"/>
      <point x="626" y="306"/>
      <point x="600" y="141"/>
      <point x="415" y="141" type="curve" smooth="yes"/>
      <point x="308" y="141"/>
      <point x="243" y="211"/>
      <point x="243" y="306" type="curve" smooth="yes"/>
      <point x="243" y="391"/>
      <point x="322" y="458"/>
      <point x="434" y="458" type="curve" smooth="yes"/>
      <point x="587" y="458"/>
      <point x="626" y="306"/>
    </contour>
  </outline>
</glyph>
<glyph name="six.susp_prop" format="1">
  <advance width="880"/>
  <outline>
    <contour>
      <point x="473" y="677" type="curve" smooth="yes"/>
      <point x="630" y="677"/>
      <point x="643" y="546"/>
      <point x="643" y="546" type="curve"/>
      <point x="827" y="596" type="line"/>
      <point x="827" y="596"/>
      <point x="780" y="790"/>
      <point x="480" y="790" type="curve" smooth="yes"/>
      <point x="206" y="790"/>
      <point x="60" y="621"/>
      <point x="60" y="388" type="curve" smooth="yes"/>
      <point x="60" y="154"/>
      <point x="196" y="-14"/>
      <point x="447" y="-14" type="curve" smooth="yes"/>
      <point x="655" y="-14"/>
      <point x="813" y="101"/>
      <point x="813" y="267" type="curve" smooth="yes"/>
      <point x="813" y="439"/>
      <point x="669" y="523"/>
      <point x="527" y="523" type="curve" smooth="yes"/>
      <point x="309" y="523"/>
      <point x="235" y="369"/>
      <point x="235" y="369" type="curve"/>
      <point x="229" y="541"/>
      <point x="309" y="677"/>
    </contour>
    <contour>
      <point x="254" y="248" type="curve"/>
      <point x="254" y="248"/>
      <point x="280" y="400"/>
      <point x="465" y="400" type="curve" smooth="yes"/>
      <point x="572" y="400"/>
      <point x="637" y="343"/>
      <point x="637" y="248" type="curve" smooth="yes"/>
      <point x="637" y="163"/>
      <point x="558" y="99"/>
      <point x="446" y="99" type="curve" smooth="yes"/>
      <point x="293" y="99"/>
      <point x="254" y="248"/>
    </contour>
  </outline>
</glyph>
